G04 MADE WITH FRITZING*
G04 WWW.FRITZING.ORG*
G04 DOUBLE SIDED*
G04 HOLES PLATED*
G04 CONTOUR ON CENTER OF CONTOUR VECTOR*
%ASAXBY*%
%FSLAX23Y23*%
%MOIN*%
%OFA0B0*%
%SFA1.0B1.0*%
%ADD10C,0.075000*%
%ADD11C,0.094488*%
%ADD12C,0.075361*%
%ADD13R,0.075000X0.075000*%
%ADD14R,0.039370X0.118110*%
%ADD15C,0.011111*%
%ADD16C,0.024000*%
%ADD17R,0.001000X0.001000*%
%LNCOPPER1*%
G90*
G70*
G54D10*
X989Y984D03*
X989Y1284D03*
X1089Y984D03*
X1089Y1284D03*
X1189Y984D03*
X1189Y1284D03*
X1289Y984D03*
X1289Y1284D03*
X1389Y984D03*
X1389Y1284D03*
X1489Y984D03*
X1489Y1284D03*
X1589Y984D03*
X1589Y1284D03*
X1689Y984D03*
X1689Y1284D03*
G54D11*
X980Y1505D03*
X500Y1925D03*
X1910Y1605D03*
X990Y325D03*
X1900Y1895D03*
X800Y1805D03*
X1190Y1605D03*
X140Y1615D03*
X140Y795D03*
X1480Y1695D03*
X340Y1695D03*
X340Y805D03*
X880Y535D03*
X830Y425D03*
G54D12*
X100Y2045D03*
X200Y2045D03*
X300Y2045D03*
X400Y2045D03*
X500Y2045D03*
X600Y2045D03*
X700Y2045D03*
X800Y2045D03*
X900Y2045D03*
X1000Y2045D03*
X1100Y2045D03*
X1200Y2045D03*
X1300Y2045D03*
X1400Y2045D03*
X1500Y2045D03*
X1600Y2045D03*
X1700Y2045D03*
X1800Y2045D03*
X1900Y2045D03*
X2000Y2045D03*
X2000Y2145D03*
X1900Y2145D03*
X1800Y2145D03*
X1700Y2145D03*
X1600Y2145D03*
X1500Y2145D03*
X1400Y2145D03*
X1300Y2145D03*
X1200Y2145D03*
X1100Y2145D03*
X1000Y2145D03*
X900Y2145D03*
X800Y2145D03*
X700Y2145D03*
X600Y2145D03*
X500Y2145D03*
X400Y2145D03*
X300Y2145D03*
X200Y2145D03*
X100Y2145D03*
G54D11*
X1090Y1505D03*
X1690Y805D03*
X890Y815D03*
X990Y695D03*
X680Y1815D03*
X1880Y1285D03*
G54D13*
X989Y984D03*
G54D14*
X440Y635D03*
X540Y635D03*
X640Y635D03*
X340Y635D03*
X240Y635D03*
X140Y635D03*
G54D15*
X500Y2019D02*
X500Y1946D01*
D02*
X2071Y1605D02*
X1932Y1605D01*
D02*
X2071Y2143D02*
X2071Y1605D01*
D02*
X2026Y2144D02*
X2071Y2143D01*
D02*
X1900Y2019D02*
X1900Y1916D01*
D02*
X31Y2143D02*
X31Y1503D01*
D02*
X31Y1503D02*
X959Y1505D01*
D02*
X74Y2144D02*
X31Y2143D01*
G54D16*
D02*
X167Y1615D02*
X1163Y1605D01*
G54D15*
D02*
X1800Y1814D02*
X822Y1805D01*
D02*
X1800Y2019D02*
X1800Y1814D01*
D02*
X340Y689D02*
X340Y784D01*
G54D16*
D02*
X367Y1695D02*
X1453Y1695D01*
G54D15*
D02*
X140Y689D02*
X140Y774D01*
D02*
X440Y885D02*
X729Y885D01*
D02*
X729Y885D02*
X730Y425D01*
D02*
X730Y425D02*
X809Y425D01*
D02*
X440Y689D02*
X440Y885D01*
D02*
X791Y533D02*
X859Y535D01*
D02*
X788Y963D02*
X791Y533D01*
D02*
X240Y965D02*
X788Y963D01*
D02*
X240Y689D02*
X240Y965D01*
G54D16*
D02*
X2102Y2205D02*
X2111Y1503D01*
D02*
X1894Y2176D02*
X1889Y2205D01*
D02*
X1889Y2205D02*
X2102Y2205D01*
D02*
X2111Y1503D02*
X1117Y1505D01*
D02*
X917Y815D02*
X1663Y806D01*
D02*
X990Y352D02*
X990Y668D01*
D02*
X1702Y1928D02*
X1701Y2014D01*
D02*
X682Y1925D02*
X1702Y1928D01*
D02*
X681Y1842D02*
X682Y1925D01*
D02*
X1017Y325D02*
X1892Y328D01*
D02*
X1892Y328D02*
X1881Y1258D01*
G54D17*
X1202Y267D02*
X1209Y267D01*
X1577Y267D02*
X1584Y267D01*
X1201Y266D02*
X1210Y266D01*
X1576Y266D02*
X1585Y266D01*
X1201Y265D02*
X1211Y265D01*
X1575Y265D02*
X1585Y265D01*
X1067Y264D02*
X1093Y264D01*
X1200Y264D02*
X1211Y264D01*
X1400Y264D02*
X1403Y264D01*
X1575Y264D02*
X1586Y264D01*
X1067Y263D02*
X1096Y263D01*
X1200Y263D02*
X1211Y263D01*
X1399Y263D02*
X1404Y263D01*
X1575Y263D02*
X1586Y263D01*
X1067Y262D02*
X1097Y262D01*
X1200Y262D02*
X1211Y262D01*
X1398Y262D02*
X1405Y262D01*
X1575Y262D02*
X1586Y262D01*
X1067Y261D02*
X1099Y261D01*
X1200Y261D02*
X1211Y261D01*
X1398Y261D02*
X1405Y261D01*
X1575Y261D02*
X1586Y261D01*
X1067Y260D02*
X1100Y260D01*
X1200Y260D02*
X1211Y260D01*
X1398Y260D02*
X1405Y260D01*
X1575Y260D02*
X1585Y260D01*
X1067Y259D02*
X1101Y259D01*
X1201Y259D02*
X1210Y259D01*
X1398Y259D02*
X1405Y259D01*
X1575Y259D02*
X1585Y259D01*
X1067Y258D02*
X1101Y258D01*
X1202Y258D02*
X1210Y258D01*
X1398Y258D02*
X1405Y258D01*
X1576Y258D02*
X1584Y258D01*
X1067Y257D02*
X1102Y257D01*
X1203Y257D02*
X1208Y257D01*
X1398Y257D02*
X1405Y257D01*
X1578Y257D02*
X1583Y257D01*
X1067Y256D02*
X1074Y256D01*
X1093Y256D02*
X1103Y256D01*
X1398Y256D02*
X1405Y256D01*
X1067Y255D02*
X1074Y255D01*
X1095Y255D02*
X1103Y255D01*
X1398Y255D02*
X1405Y255D01*
X1067Y254D02*
X1074Y254D01*
X1096Y254D02*
X1104Y254D01*
X1398Y254D02*
X1405Y254D01*
X1067Y253D02*
X1074Y253D01*
X1097Y253D02*
X1104Y253D01*
X1398Y253D02*
X1405Y253D01*
X1067Y252D02*
X1074Y252D01*
X1097Y252D02*
X1104Y252D01*
X1398Y252D02*
X1405Y252D01*
X1067Y251D02*
X1074Y251D01*
X1097Y251D02*
X1104Y251D01*
X1398Y251D02*
X1405Y251D01*
X1067Y250D02*
X1074Y250D01*
X1098Y250D02*
X1104Y250D01*
X1398Y250D02*
X1405Y250D01*
X1067Y249D02*
X1074Y249D01*
X1098Y249D02*
X1104Y249D01*
X1398Y249D02*
X1405Y249D01*
X1067Y248D02*
X1074Y248D01*
X1098Y248D02*
X1104Y248D01*
X1134Y248D02*
X1148Y248D01*
X1191Y248D02*
X1208Y248D01*
X1243Y248D02*
X1260Y248D01*
X1290Y248D02*
X1292Y248D01*
X1307Y248D02*
X1315Y248D01*
X1398Y248D02*
X1405Y248D01*
X1463Y248D02*
X1481Y248D01*
X1513Y248D02*
X1543Y248D01*
X1570Y248D02*
X1583Y248D01*
X1634Y248D02*
X1653Y248D01*
X1067Y247D02*
X1074Y247D01*
X1098Y247D02*
X1104Y247D01*
X1131Y247D02*
X1151Y247D01*
X1190Y247D02*
X1210Y247D01*
X1241Y247D02*
X1263Y247D01*
X1289Y247D02*
X1294Y247D01*
X1304Y247D02*
X1318Y247D01*
X1398Y247D02*
X1405Y247D01*
X1462Y247D02*
X1483Y247D01*
X1511Y247D02*
X1545Y247D01*
X1569Y247D02*
X1584Y247D01*
X1632Y247D02*
X1655Y247D01*
X1067Y246D02*
X1074Y246D01*
X1098Y246D02*
X1104Y246D01*
X1130Y246D02*
X1152Y246D01*
X1189Y246D02*
X1211Y246D01*
X1241Y246D02*
X1264Y246D01*
X1288Y246D02*
X1294Y246D01*
X1302Y246D02*
X1319Y246D01*
X1398Y246D02*
X1405Y246D01*
X1461Y246D02*
X1485Y246D01*
X1511Y246D02*
X1545Y246D01*
X1568Y246D02*
X1585Y246D01*
X1630Y246D02*
X1656Y246D01*
X1067Y245D02*
X1074Y245D01*
X1098Y245D02*
X1104Y245D01*
X1129Y245D02*
X1153Y245D01*
X1189Y245D02*
X1211Y245D01*
X1240Y245D02*
X1265Y245D01*
X1288Y245D02*
X1295Y245D01*
X1301Y245D02*
X1321Y245D01*
X1398Y245D02*
X1405Y245D01*
X1461Y245D02*
X1486Y245D01*
X1510Y245D02*
X1546Y245D01*
X1568Y245D02*
X1585Y245D01*
X1628Y245D02*
X1656Y245D01*
X1067Y244D02*
X1074Y244D01*
X1097Y244D02*
X1104Y244D01*
X1127Y244D02*
X1155Y244D01*
X1189Y244D02*
X1211Y244D01*
X1240Y244D02*
X1266Y244D01*
X1288Y244D02*
X1295Y244D01*
X1299Y244D02*
X1321Y244D01*
X1398Y244D02*
X1405Y244D01*
X1461Y244D02*
X1487Y244D01*
X1510Y244D02*
X1546Y244D01*
X1567Y244D02*
X1586Y244D01*
X1627Y244D02*
X1656Y244D01*
X1067Y243D02*
X1074Y243D01*
X1097Y243D02*
X1104Y243D01*
X1126Y243D02*
X1156Y243D01*
X1189Y243D02*
X1211Y243D01*
X1241Y243D02*
X1267Y243D01*
X1288Y243D02*
X1295Y243D01*
X1298Y243D02*
X1322Y243D01*
X1398Y243D02*
X1405Y243D01*
X1461Y243D02*
X1488Y243D01*
X1511Y243D02*
X1546Y243D01*
X1568Y243D02*
X1586Y243D01*
X1626Y243D02*
X1656Y243D01*
X1067Y242D02*
X1074Y242D01*
X1096Y242D02*
X1104Y242D01*
X1125Y242D02*
X1157Y242D01*
X1190Y242D02*
X1211Y242D01*
X1241Y242D02*
X1268Y242D01*
X1288Y242D02*
X1323Y242D01*
X1398Y242D02*
X1405Y242D01*
X1462Y242D02*
X1488Y242D01*
X1511Y242D02*
X1546Y242D01*
X1568Y242D02*
X1586Y242D01*
X1625Y242D02*
X1655Y242D01*
X1067Y241D02*
X1074Y241D01*
X1095Y241D02*
X1103Y241D01*
X1125Y241D02*
X1157Y241D01*
X1191Y241D02*
X1211Y241D01*
X1242Y241D02*
X1268Y241D01*
X1288Y241D02*
X1323Y241D01*
X1398Y241D02*
X1405Y241D01*
X1463Y241D02*
X1489Y241D01*
X1512Y241D02*
X1546Y241D01*
X1570Y241D02*
X1586Y241D01*
X1624Y241D02*
X1654Y241D01*
X1067Y240D02*
X1074Y240D01*
X1094Y240D02*
X1103Y240D01*
X1124Y240D02*
X1134Y240D01*
X1148Y240D02*
X1158Y240D01*
X1204Y240D02*
X1211Y240D01*
X1260Y240D02*
X1268Y240D01*
X1288Y240D02*
X1306Y240D01*
X1315Y240D02*
X1324Y240D01*
X1398Y240D02*
X1405Y240D01*
X1481Y240D02*
X1489Y240D01*
X1536Y240D02*
X1545Y240D01*
X1579Y240D02*
X1586Y240D01*
X1623Y240D02*
X1634Y240D01*
X1067Y239D02*
X1074Y239D01*
X1092Y239D02*
X1103Y239D01*
X1124Y239D02*
X1132Y239D01*
X1150Y239D02*
X1159Y239D01*
X1204Y239D02*
X1211Y239D01*
X1261Y239D02*
X1269Y239D01*
X1288Y239D02*
X1305Y239D01*
X1316Y239D02*
X1324Y239D01*
X1398Y239D02*
X1405Y239D01*
X1482Y239D02*
X1489Y239D01*
X1535Y239D02*
X1545Y239D01*
X1579Y239D02*
X1586Y239D01*
X1622Y239D02*
X1633Y239D01*
X1067Y238D02*
X1102Y238D01*
X1123Y238D02*
X1131Y238D01*
X1151Y238D02*
X1159Y238D01*
X1204Y238D02*
X1211Y238D01*
X1262Y238D02*
X1269Y238D01*
X1288Y238D02*
X1303Y238D01*
X1317Y238D02*
X1324Y238D01*
X1398Y238D02*
X1405Y238D01*
X1482Y238D02*
X1489Y238D01*
X1534Y238D02*
X1544Y238D01*
X1579Y238D02*
X1586Y238D01*
X1621Y238D02*
X1632Y238D01*
X1067Y237D02*
X1101Y237D01*
X1123Y237D02*
X1130Y237D01*
X1152Y237D02*
X1159Y237D01*
X1204Y237D02*
X1211Y237D01*
X1262Y237D02*
X1269Y237D01*
X1288Y237D02*
X1302Y237D01*
X1317Y237D02*
X1324Y237D01*
X1398Y237D02*
X1405Y237D01*
X1483Y237D02*
X1490Y237D01*
X1533Y237D02*
X1543Y237D01*
X1579Y237D02*
X1586Y237D01*
X1620Y237D02*
X1630Y237D01*
X1067Y236D02*
X1100Y236D01*
X1123Y236D02*
X1130Y236D01*
X1152Y236D02*
X1159Y236D01*
X1204Y236D02*
X1211Y236D01*
X1262Y236D02*
X1269Y236D01*
X1288Y236D02*
X1300Y236D01*
X1317Y236D02*
X1324Y236D01*
X1398Y236D02*
X1405Y236D01*
X1483Y236D02*
X1490Y236D01*
X1532Y236D02*
X1542Y236D01*
X1579Y236D02*
X1586Y236D01*
X1620Y236D02*
X1629Y236D01*
X1067Y235D02*
X1099Y235D01*
X1123Y235D02*
X1129Y235D01*
X1153Y235D02*
X1160Y235D01*
X1204Y235D02*
X1211Y235D01*
X1262Y235D02*
X1269Y235D01*
X1288Y235D02*
X1298Y235D01*
X1317Y235D02*
X1324Y235D01*
X1398Y235D02*
X1405Y235D01*
X1483Y235D02*
X1490Y235D01*
X1531Y235D02*
X1541Y235D01*
X1579Y235D02*
X1586Y235D01*
X1619Y235D02*
X1628Y235D01*
X1067Y234D02*
X1100Y234D01*
X1122Y234D02*
X1129Y234D01*
X1153Y234D02*
X1160Y234D01*
X1204Y234D02*
X1211Y234D01*
X1262Y234D02*
X1269Y234D01*
X1288Y234D02*
X1297Y234D01*
X1317Y234D02*
X1324Y234D01*
X1398Y234D02*
X1405Y234D01*
X1483Y234D02*
X1490Y234D01*
X1530Y234D02*
X1540Y234D01*
X1579Y234D02*
X1586Y234D01*
X1619Y234D02*
X1627Y234D01*
X1067Y233D02*
X1101Y233D01*
X1122Y233D02*
X1129Y233D01*
X1153Y233D02*
X1160Y233D01*
X1204Y233D02*
X1211Y233D01*
X1262Y233D02*
X1269Y233D01*
X1288Y233D02*
X1295Y233D01*
X1317Y233D02*
X1324Y233D01*
X1398Y233D02*
X1405Y233D01*
X1483Y233D02*
X1490Y233D01*
X1529Y233D02*
X1539Y233D01*
X1579Y233D02*
X1586Y233D01*
X1619Y233D02*
X1626Y233D01*
X1067Y232D02*
X1102Y232D01*
X1122Y232D02*
X1129Y232D01*
X1153Y232D02*
X1160Y232D01*
X1204Y232D02*
X1211Y232D01*
X1244Y232D02*
X1259Y232D01*
X1262Y232D02*
X1269Y232D01*
X1288Y232D02*
X1295Y232D01*
X1317Y232D02*
X1324Y232D01*
X1398Y232D02*
X1405Y232D01*
X1464Y232D02*
X1479Y232D01*
X1483Y232D02*
X1490Y232D01*
X1528Y232D02*
X1538Y232D01*
X1579Y232D02*
X1586Y232D01*
X1619Y232D02*
X1626Y232D01*
X1067Y231D02*
X1102Y231D01*
X1122Y231D02*
X1129Y231D01*
X1153Y231D02*
X1160Y231D01*
X1204Y231D02*
X1211Y231D01*
X1239Y231D02*
X1269Y231D01*
X1288Y231D02*
X1295Y231D01*
X1318Y231D02*
X1324Y231D01*
X1398Y231D02*
X1405Y231D01*
X1460Y231D02*
X1490Y231D01*
X1527Y231D02*
X1537Y231D01*
X1579Y231D02*
X1586Y231D01*
X1619Y231D02*
X1626Y231D01*
X1067Y230D02*
X1074Y230D01*
X1093Y230D02*
X1103Y230D01*
X1122Y230D02*
X1129Y230D01*
X1153Y230D02*
X1160Y230D01*
X1204Y230D02*
X1211Y230D01*
X1238Y230D02*
X1269Y230D01*
X1288Y230D02*
X1295Y230D01*
X1318Y230D02*
X1324Y230D01*
X1398Y230D02*
X1405Y230D01*
X1458Y230D02*
X1490Y230D01*
X1526Y230D02*
X1536Y230D01*
X1579Y230D02*
X1586Y230D01*
X1619Y230D02*
X1626Y230D01*
X1067Y229D02*
X1074Y229D01*
X1095Y229D02*
X1103Y229D01*
X1122Y229D02*
X1129Y229D01*
X1153Y229D02*
X1160Y229D01*
X1204Y229D02*
X1211Y229D01*
X1236Y229D02*
X1269Y229D01*
X1288Y229D02*
X1295Y229D01*
X1318Y229D02*
X1324Y229D01*
X1398Y229D02*
X1405Y229D01*
X1457Y229D02*
X1490Y229D01*
X1525Y229D02*
X1535Y229D01*
X1579Y229D02*
X1586Y229D01*
X1619Y229D02*
X1626Y229D01*
X1067Y228D02*
X1074Y228D01*
X1096Y228D02*
X1104Y228D01*
X1122Y228D02*
X1129Y228D01*
X1153Y228D02*
X1160Y228D01*
X1204Y228D02*
X1211Y228D01*
X1236Y228D02*
X1269Y228D01*
X1288Y228D02*
X1295Y228D01*
X1318Y228D02*
X1324Y228D01*
X1398Y228D02*
X1405Y228D01*
X1456Y228D02*
X1490Y228D01*
X1524Y228D02*
X1534Y228D01*
X1579Y228D02*
X1586Y228D01*
X1619Y228D02*
X1626Y228D01*
X1067Y227D02*
X1074Y227D01*
X1097Y227D02*
X1104Y227D01*
X1122Y227D02*
X1129Y227D01*
X1153Y227D02*
X1160Y227D01*
X1204Y227D02*
X1211Y227D01*
X1235Y227D02*
X1269Y227D01*
X1288Y227D02*
X1295Y227D01*
X1318Y227D02*
X1324Y227D01*
X1398Y227D02*
X1405Y227D01*
X1455Y227D02*
X1490Y227D01*
X1522Y227D02*
X1533Y227D01*
X1579Y227D02*
X1586Y227D01*
X1619Y227D02*
X1626Y227D01*
X1067Y226D02*
X1074Y226D01*
X1097Y226D02*
X1104Y226D01*
X1122Y226D02*
X1129Y226D01*
X1153Y226D02*
X1160Y226D01*
X1204Y226D02*
X1211Y226D01*
X1234Y226D02*
X1269Y226D01*
X1288Y226D02*
X1295Y226D01*
X1318Y226D02*
X1324Y226D01*
X1398Y226D02*
X1405Y226D01*
X1455Y226D02*
X1490Y226D01*
X1521Y226D02*
X1532Y226D01*
X1579Y226D02*
X1586Y226D01*
X1619Y226D02*
X1626Y226D01*
X1067Y225D02*
X1074Y225D01*
X1097Y225D02*
X1104Y225D01*
X1122Y225D02*
X1129Y225D01*
X1153Y225D02*
X1160Y225D01*
X1204Y225D02*
X1211Y225D01*
X1234Y225D02*
X1269Y225D01*
X1288Y225D02*
X1295Y225D01*
X1318Y225D02*
X1324Y225D01*
X1398Y225D02*
X1405Y225D01*
X1454Y225D02*
X1490Y225D01*
X1520Y225D02*
X1531Y225D01*
X1579Y225D02*
X1586Y225D01*
X1619Y225D02*
X1626Y225D01*
X1067Y224D02*
X1074Y224D01*
X1098Y224D02*
X1104Y224D01*
X1122Y224D02*
X1129Y224D01*
X1153Y224D02*
X1160Y224D01*
X1204Y224D02*
X1211Y224D01*
X1233Y224D02*
X1242Y224D01*
X1260Y224D02*
X1269Y224D01*
X1288Y224D02*
X1295Y224D01*
X1318Y224D02*
X1324Y224D01*
X1398Y224D02*
X1405Y224D01*
X1454Y224D02*
X1462Y224D01*
X1481Y224D02*
X1490Y224D01*
X1519Y224D02*
X1530Y224D01*
X1579Y224D02*
X1586Y224D01*
X1619Y224D02*
X1626Y224D01*
X1067Y223D02*
X1074Y223D01*
X1098Y223D02*
X1104Y223D01*
X1122Y223D02*
X1129Y223D01*
X1153Y223D02*
X1160Y223D01*
X1204Y223D02*
X1211Y223D01*
X1233Y223D02*
X1240Y223D01*
X1262Y223D02*
X1269Y223D01*
X1288Y223D02*
X1295Y223D01*
X1318Y223D02*
X1325Y223D01*
X1398Y223D02*
X1405Y223D01*
X1454Y223D02*
X1461Y223D01*
X1482Y223D02*
X1490Y223D01*
X1518Y223D02*
X1528Y223D01*
X1579Y223D02*
X1586Y223D01*
X1619Y223D02*
X1626Y223D01*
X1067Y222D02*
X1074Y222D01*
X1098Y222D02*
X1104Y222D01*
X1122Y222D02*
X1129Y222D01*
X1153Y222D02*
X1160Y222D01*
X1204Y222D02*
X1211Y222D01*
X1233Y222D02*
X1240Y222D01*
X1262Y222D02*
X1269Y222D01*
X1288Y222D02*
X1295Y222D01*
X1318Y222D02*
X1325Y222D01*
X1398Y222D02*
X1405Y222D01*
X1453Y222D02*
X1460Y222D01*
X1483Y222D02*
X1490Y222D01*
X1517Y222D02*
X1527Y222D01*
X1579Y222D02*
X1586Y222D01*
X1619Y222D02*
X1626Y222D01*
X1067Y221D02*
X1074Y221D01*
X1098Y221D02*
X1104Y221D01*
X1122Y221D02*
X1129Y221D01*
X1153Y221D02*
X1160Y221D01*
X1204Y221D02*
X1211Y221D01*
X1233Y221D02*
X1240Y221D01*
X1263Y221D02*
X1269Y221D01*
X1288Y221D02*
X1295Y221D01*
X1318Y221D02*
X1325Y221D01*
X1398Y221D02*
X1405Y221D01*
X1453Y221D02*
X1460Y221D01*
X1483Y221D02*
X1490Y221D01*
X1516Y221D02*
X1526Y221D01*
X1579Y221D02*
X1586Y221D01*
X1619Y221D02*
X1626Y221D01*
X1067Y220D02*
X1074Y220D01*
X1098Y220D02*
X1104Y220D01*
X1122Y220D02*
X1129Y220D01*
X1153Y220D02*
X1160Y220D01*
X1204Y220D02*
X1211Y220D01*
X1233Y220D02*
X1239Y220D01*
X1263Y220D02*
X1269Y220D01*
X1288Y220D02*
X1295Y220D01*
X1318Y220D02*
X1325Y220D01*
X1398Y220D02*
X1405Y220D01*
X1453Y220D02*
X1460Y220D01*
X1483Y220D02*
X1490Y220D01*
X1515Y220D02*
X1525Y220D01*
X1579Y220D02*
X1586Y220D01*
X1619Y220D02*
X1626Y220D01*
X1067Y219D02*
X1074Y219D01*
X1098Y219D02*
X1104Y219D01*
X1122Y219D02*
X1129Y219D01*
X1153Y219D02*
X1160Y219D01*
X1204Y219D02*
X1211Y219D01*
X1233Y219D02*
X1239Y219D01*
X1263Y219D02*
X1270Y219D01*
X1288Y219D02*
X1295Y219D01*
X1318Y219D02*
X1325Y219D01*
X1398Y219D02*
X1405Y219D01*
X1453Y219D02*
X1460Y219D01*
X1483Y219D02*
X1490Y219D01*
X1514Y219D02*
X1524Y219D01*
X1579Y219D02*
X1586Y219D01*
X1619Y219D02*
X1627Y219D01*
X1067Y218D02*
X1074Y218D01*
X1097Y218D02*
X1104Y218D01*
X1123Y218D02*
X1129Y218D01*
X1153Y218D02*
X1160Y218D01*
X1204Y218D02*
X1211Y218D01*
X1233Y218D02*
X1239Y218D01*
X1263Y218D02*
X1270Y218D01*
X1288Y218D02*
X1295Y218D01*
X1318Y218D02*
X1325Y218D01*
X1398Y218D02*
X1405Y218D01*
X1453Y218D02*
X1460Y218D01*
X1483Y218D02*
X1490Y218D01*
X1513Y218D02*
X1523Y218D01*
X1579Y218D02*
X1586Y218D01*
X1620Y218D02*
X1628Y218D01*
X1067Y217D02*
X1074Y217D01*
X1097Y217D02*
X1104Y217D01*
X1123Y217D02*
X1130Y217D01*
X1152Y217D02*
X1159Y217D01*
X1204Y217D02*
X1211Y217D01*
X1233Y217D02*
X1239Y217D01*
X1262Y217D02*
X1270Y217D01*
X1288Y217D02*
X1295Y217D01*
X1318Y217D02*
X1325Y217D01*
X1398Y217D02*
X1405Y217D01*
X1453Y217D02*
X1460Y217D01*
X1483Y217D02*
X1490Y217D01*
X1512Y217D02*
X1522Y217D01*
X1579Y217D02*
X1586Y217D01*
X1620Y217D02*
X1629Y217D01*
X1067Y216D02*
X1074Y216D01*
X1096Y216D02*
X1104Y216D01*
X1123Y216D02*
X1130Y216D01*
X1152Y216D02*
X1159Y216D01*
X1204Y216D02*
X1211Y216D01*
X1233Y216D02*
X1240Y216D01*
X1260Y216D02*
X1270Y216D01*
X1288Y216D02*
X1295Y216D01*
X1318Y216D02*
X1325Y216D01*
X1398Y216D02*
X1405Y216D01*
X1453Y216D02*
X1460Y216D01*
X1481Y216D02*
X1490Y216D01*
X1511Y216D02*
X1521Y216D01*
X1579Y216D02*
X1586Y216D01*
X1620Y216D02*
X1630Y216D01*
X1067Y215D02*
X1074Y215D01*
X1095Y215D02*
X1103Y215D01*
X1123Y215D02*
X1131Y215D01*
X1151Y215D02*
X1159Y215D01*
X1204Y215D02*
X1211Y215D01*
X1233Y215D02*
X1240Y215D01*
X1259Y215D02*
X1270Y215D01*
X1288Y215D02*
X1295Y215D01*
X1318Y215D02*
X1325Y215D01*
X1398Y215D02*
X1405Y215D01*
X1453Y215D02*
X1460Y215D01*
X1479Y215D02*
X1490Y215D01*
X1510Y215D02*
X1520Y215D01*
X1579Y215D02*
X1586Y215D01*
X1621Y215D02*
X1632Y215D01*
X1067Y214D02*
X1074Y214D01*
X1094Y214D02*
X1103Y214D01*
X1123Y214D02*
X1133Y214D01*
X1149Y214D02*
X1159Y214D01*
X1204Y214D02*
X1211Y214D01*
X1233Y214D02*
X1240Y214D01*
X1257Y214D02*
X1270Y214D01*
X1288Y214D02*
X1295Y214D01*
X1318Y214D02*
X1325Y214D01*
X1398Y214D02*
X1405Y214D01*
X1454Y214D02*
X1461Y214D01*
X1478Y214D02*
X1490Y214D01*
X1509Y214D02*
X1519Y214D01*
X1579Y214D02*
X1586Y214D01*
X1622Y214D02*
X1633Y214D01*
X1067Y213D02*
X1074Y213D01*
X1093Y213D02*
X1103Y213D01*
X1124Y213D02*
X1134Y213D01*
X1148Y213D02*
X1158Y213D01*
X1204Y213D02*
X1211Y213D01*
X1233Y213D02*
X1241Y213D01*
X1255Y213D02*
X1270Y213D01*
X1288Y213D02*
X1295Y213D01*
X1318Y213D02*
X1325Y213D01*
X1398Y213D02*
X1405Y213D01*
X1454Y213D02*
X1462Y213D01*
X1476Y213D02*
X1490Y213D01*
X1509Y213D02*
X1518Y213D01*
X1579Y213D02*
X1586Y213D01*
X1623Y213D02*
X1634Y213D01*
X1067Y212D02*
X1102Y212D01*
X1124Y212D02*
X1157Y212D01*
X1204Y212D02*
X1211Y212D01*
X1234Y212D02*
X1270Y212D01*
X1288Y212D02*
X1295Y212D01*
X1318Y212D02*
X1325Y212D01*
X1398Y212D02*
X1433Y212D01*
X1454Y212D02*
X1490Y212D01*
X1509Y212D02*
X1544Y212D01*
X1569Y212D02*
X1595Y212D01*
X1624Y212D02*
X1654Y212D01*
X1067Y211D02*
X1101Y211D01*
X1125Y211D02*
X1156Y211D01*
X1204Y211D02*
X1211Y211D01*
X1234Y211D02*
X1270Y211D01*
X1288Y211D02*
X1295Y211D01*
X1318Y211D02*
X1325Y211D01*
X1398Y211D02*
X1434Y211D01*
X1455Y211D02*
X1490Y211D01*
X1509Y211D02*
X1545Y211D01*
X1568Y211D02*
X1596Y211D01*
X1625Y211D02*
X1655Y211D01*
X1067Y210D02*
X1100Y210D01*
X1126Y210D02*
X1156Y210D01*
X1204Y210D02*
X1211Y210D01*
X1235Y210D02*
X1270Y210D01*
X1288Y210D02*
X1295Y210D01*
X1318Y210D02*
X1325Y210D01*
X1398Y210D02*
X1435Y210D01*
X1455Y210D02*
X1490Y210D01*
X1509Y210D02*
X1545Y210D01*
X1568Y210D02*
X1597Y210D01*
X1627Y210D02*
X1656Y210D01*
X1067Y209D02*
X1099Y209D01*
X1127Y209D02*
X1154Y209D01*
X1204Y209D02*
X1211Y209D01*
X1235Y209D02*
X1270Y209D01*
X1288Y209D02*
X1295Y209D01*
X1318Y209D02*
X1325Y209D01*
X1398Y209D02*
X1435Y209D01*
X1456Y209D02*
X1490Y209D01*
X1509Y209D02*
X1546Y209D01*
X1567Y209D02*
X1597Y209D01*
X1628Y209D02*
X1656Y209D01*
X1067Y208D02*
X1098Y208D01*
X1129Y208D02*
X1153Y208D01*
X1204Y208D02*
X1211Y208D01*
X1236Y208D02*
X1261Y208D01*
X1263Y208D02*
X1270Y208D01*
X1288Y208D02*
X1295Y208D01*
X1318Y208D02*
X1325Y208D01*
X1398Y208D02*
X1435Y208D01*
X1457Y208D02*
X1482Y208D01*
X1484Y208D02*
X1490Y208D01*
X1509Y208D02*
X1546Y208D01*
X1568Y208D02*
X1597Y208D01*
X1629Y208D02*
X1656Y208D01*
X1067Y207D02*
X1097Y207D01*
X1130Y207D02*
X1152Y207D01*
X1204Y207D02*
X1211Y207D01*
X1237Y207D02*
X1259Y207D01*
X1264Y207D02*
X1269Y207D01*
X1288Y207D02*
X1294Y207D01*
X1319Y207D02*
X1325Y207D01*
X1398Y207D02*
X1435Y207D01*
X1458Y207D02*
X1480Y207D01*
X1484Y207D02*
X1490Y207D01*
X1509Y207D02*
X1545Y207D01*
X1568Y207D02*
X1597Y207D01*
X1630Y207D02*
X1656Y207D01*
X1067Y206D02*
X1095Y206D01*
X1132Y206D02*
X1150Y206D01*
X1204Y206D02*
X1211Y206D01*
X1239Y206D02*
X1258Y206D01*
X1264Y206D02*
X1269Y206D01*
X1289Y206D02*
X1293Y206D01*
X1319Y206D02*
X1324Y206D01*
X1398Y206D02*
X1434Y206D01*
X1460Y206D02*
X1478Y206D01*
X1485Y206D02*
X1489Y206D01*
X1510Y206D02*
X1544Y206D01*
X1569Y206D02*
X1596Y206D01*
X1632Y206D02*
X1655Y206D01*
X1067Y205D02*
X1091Y205D01*
X1135Y205D02*
X1147Y205D01*
X1204Y205D02*
X1211Y205D01*
X1242Y205D02*
X1256Y205D01*
X1266Y205D02*
X1267Y205D01*
X1291Y205D02*
X1292Y205D01*
X1321Y205D02*
X1322Y205D01*
X1398Y205D02*
X1433Y205D01*
X1463Y205D02*
X1476Y205D01*
X1486Y205D02*
X1488Y205D01*
X1511Y205D02*
X1543Y205D01*
X1570Y205D02*
X1594Y205D01*
X1635Y205D02*
X1653Y205D01*
X1204Y204D02*
X1211Y204D01*
X1204Y203D02*
X1211Y203D01*
X1183Y202D02*
X1186Y202D01*
X1204Y202D02*
X1211Y202D01*
X1182Y201D02*
X1187Y201D01*
X1204Y201D02*
X1211Y201D01*
X1182Y200D02*
X1188Y200D01*
X1204Y200D02*
X1211Y200D01*
X1181Y199D02*
X1188Y199D01*
X1204Y199D02*
X1211Y199D01*
X1181Y198D02*
X1189Y198D01*
X1204Y198D02*
X1211Y198D01*
X1182Y197D02*
X1190Y197D01*
X1202Y197D02*
X1210Y197D01*
X1182Y196D02*
X1210Y196D01*
X1182Y195D02*
X1210Y195D01*
X1183Y194D02*
X1209Y194D01*
X1184Y193D02*
X1208Y193D01*
X1185Y192D02*
X1208Y192D01*
X1186Y191D02*
X1206Y191D01*
X1187Y190D02*
X1205Y190D01*
X1190Y189D02*
X1202Y189D01*
X1072Y154D02*
X1087Y154D01*
X1443Y154D02*
X1464Y154D01*
X1507Y154D02*
X1518Y154D01*
X1538Y154D02*
X1556Y154D01*
X1682Y154D02*
X1704Y154D01*
X1068Y153D02*
X1091Y153D01*
X1443Y153D02*
X1469Y153D01*
X1503Y153D02*
X1520Y153D01*
X1537Y153D02*
X1561Y153D01*
X1633Y153D02*
X1636Y153D01*
X1659Y153D02*
X1662Y153D01*
X1680Y153D02*
X1707Y153D01*
X1067Y152D02*
X1093Y152D01*
X1443Y152D02*
X1470Y152D01*
X1501Y152D02*
X1521Y152D01*
X1537Y152D02*
X1562Y152D01*
X1632Y152D02*
X1637Y152D01*
X1658Y152D02*
X1663Y152D01*
X1679Y152D02*
X1708Y152D01*
X1066Y151D02*
X1094Y151D01*
X1120Y151D02*
X1122Y151D01*
X1443Y151D02*
X1471Y151D01*
X1500Y151D02*
X1521Y151D01*
X1537Y151D02*
X1564Y151D01*
X1632Y151D02*
X1637Y151D01*
X1658Y151D02*
X1663Y151D01*
X1679Y151D02*
X1709Y151D01*
X1065Y150D02*
X1095Y150D01*
X1119Y150D02*
X1123Y150D01*
X1443Y150D02*
X1472Y150D01*
X1499Y150D02*
X1521Y150D01*
X1537Y150D02*
X1565Y150D01*
X1632Y150D02*
X1637Y150D01*
X1658Y150D02*
X1663Y150D01*
X1679Y150D02*
X1710Y150D01*
X1065Y149D02*
X1095Y149D01*
X1118Y149D02*
X1124Y149D01*
X1443Y149D02*
X1473Y149D01*
X1498Y149D02*
X1521Y149D01*
X1537Y149D02*
X1566Y149D01*
X1632Y149D02*
X1637Y149D01*
X1658Y149D02*
X1663Y149D01*
X1679Y149D02*
X1710Y149D01*
X1065Y148D02*
X1096Y148D01*
X1118Y148D02*
X1124Y148D01*
X1443Y148D02*
X1473Y148D01*
X1498Y148D02*
X1520Y148D01*
X1537Y148D02*
X1566Y148D01*
X1632Y148D02*
X1637Y148D01*
X1658Y148D02*
X1663Y148D01*
X1680Y148D02*
X1710Y148D01*
X1064Y147D02*
X1070Y147D01*
X1089Y147D02*
X1096Y147D01*
X1118Y147D02*
X1124Y147D01*
X1443Y147D02*
X1448Y147D01*
X1467Y147D02*
X1474Y147D01*
X1497Y147D02*
X1504Y147D01*
X1537Y147D02*
X1543Y147D01*
X1559Y147D02*
X1567Y147D01*
X1632Y147D02*
X1637Y147D01*
X1658Y147D02*
X1663Y147D01*
X1705Y147D02*
X1711Y147D01*
X1064Y146D02*
X1070Y146D01*
X1090Y146D02*
X1096Y146D01*
X1118Y146D02*
X1124Y146D01*
X1443Y146D02*
X1448Y146D01*
X1468Y146D02*
X1474Y146D01*
X1497Y146D02*
X1503Y146D01*
X1537Y146D02*
X1543Y146D01*
X1560Y146D02*
X1568Y146D01*
X1632Y146D02*
X1637Y146D01*
X1658Y146D02*
X1663Y146D01*
X1705Y146D02*
X1711Y146D01*
X1065Y145D02*
X1071Y145D01*
X1090Y145D02*
X1096Y145D01*
X1118Y145D02*
X1124Y145D01*
X1443Y145D02*
X1448Y145D01*
X1468Y145D02*
X1474Y145D01*
X1496Y145D02*
X1503Y145D01*
X1537Y145D02*
X1543Y145D01*
X1561Y145D02*
X1568Y145D01*
X1632Y145D02*
X1637Y145D01*
X1658Y145D02*
X1663Y145D01*
X1705Y145D02*
X1711Y145D01*
X1065Y144D02*
X1072Y144D01*
X1091Y144D02*
X1096Y144D01*
X1118Y144D02*
X1124Y144D01*
X1443Y144D02*
X1448Y144D01*
X1469Y144D02*
X1474Y144D01*
X1496Y144D02*
X1502Y144D01*
X1537Y144D02*
X1543Y144D01*
X1562Y144D02*
X1568Y144D01*
X1632Y144D02*
X1637Y144D01*
X1658Y144D02*
X1663Y144D01*
X1705Y144D02*
X1711Y144D01*
X1065Y143D02*
X1073Y143D01*
X1091Y143D02*
X1095Y143D01*
X1118Y143D02*
X1124Y143D01*
X1443Y143D02*
X1448Y143D01*
X1469Y143D02*
X1474Y143D01*
X1495Y143D02*
X1502Y143D01*
X1537Y143D02*
X1543Y143D01*
X1563Y143D02*
X1569Y143D01*
X1632Y143D02*
X1637Y143D01*
X1658Y143D02*
X1663Y143D01*
X1705Y143D02*
X1711Y143D01*
X1066Y142D02*
X1073Y142D01*
X1093Y142D02*
X1094Y142D01*
X1118Y142D02*
X1124Y142D01*
X1443Y142D02*
X1448Y142D01*
X1469Y142D02*
X1474Y142D01*
X1495Y142D02*
X1501Y142D01*
X1537Y142D02*
X1543Y142D01*
X1563Y142D02*
X1569Y142D01*
X1632Y142D02*
X1637Y142D01*
X1658Y142D02*
X1663Y142D01*
X1705Y142D02*
X1711Y142D01*
X1067Y141D02*
X1074Y141D01*
X1118Y141D02*
X1124Y141D01*
X1208Y141D02*
X1210Y141D01*
X1219Y141D02*
X1225Y141D01*
X1255Y141D02*
X1257Y141D01*
X1266Y141D02*
X1272Y141D01*
X1443Y141D02*
X1448Y141D01*
X1469Y141D02*
X1474Y141D01*
X1494Y141D02*
X1501Y141D01*
X1537Y141D02*
X1543Y141D01*
X1563Y141D02*
X1569Y141D01*
X1632Y141D02*
X1637Y141D01*
X1658Y141D02*
X1663Y141D01*
X1705Y141D02*
X1711Y141D01*
X1067Y140D02*
X1075Y140D01*
X1114Y140D02*
X1137Y140D01*
X1170Y140D02*
X1180Y140D01*
X1207Y140D02*
X1211Y140D01*
X1217Y140D02*
X1227Y140D01*
X1254Y140D02*
X1258Y140D01*
X1264Y140D02*
X1275Y140D01*
X1312Y140D02*
X1322Y140D01*
X1351Y140D02*
X1351Y140D01*
X1364Y140D02*
X1371Y140D01*
X1443Y140D02*
X1448Y140D01*
X1469Y140D02*
X1474Y140D01*
X1494Y140D02*
X1500Y140D01*
X1537Y140D02*
X1543Y140D01*
X1563Y140D02*
X1569Y140D01*
X1632Y140D02*
X1637Y140D01*
X1658Y140D02*
X1663Y140D01*
X1705Y140D02*
X1711Y140D01*
X1068Y139D02*
X1076Y139D01*
X1113Y139D02*
X1139Y139D01*
X1167Y139D02*
X1183Y139D01*
X1206Y139D02*
X1212Y139D01*
X1215Y139D02*
X1229Y139D01*
X1254Y139D02*
X1259Y139D01*
X1263Y139D02*
X1276Y139D01*
X1308Y139D02*
X1325Y139D01*
X1349Y139D02*
X1353Y139D01*
X1362Y139D02*
X1374Y139D01*
X1443Y139D02*
X1448Y139D01*
X1469Y139D02*
X1474Y139D01*
X1493Y139D02*
X1500Y139D01*
X1537Y139D02*
X1543Y139D01*
X1563Y139D02*
X1569Y139D01*
X1632Y139D02*
X1638Y139D01*
X1657Y139D02*
X1663Y139D01*
X1705Y139D02*
X1711Y139D01*
X1069Y138D02*
X1076Y138D01*
X1112Y138D02*
X1140Y138D01*
X1165Y138D02*
X1184Y138D01*
X1206Y138D02*
X1212Y138D01*
X1214Y138D02*
X1230Y138D01*
X1253Y138D02*
X1259Y138D01*
X1262Y138D02*
X1277Y138D01*
X1307Y138D02*
X1326Y138D01*
X1348Y138D02*
X1353Y138D01*
X1361Y138D02*
X1376Y138D01*
X1443Y138D02*
X1448Y138D01*
X1469Y138D02*
X1474Y138D01*
X1493Y138D02*
X1499Y138D01*
X1537Y138D02*
X1543Y138D01*
X1563Y138D02*
X1569Y138D01*
X1632Y138D02*
X1638Y138D01*
X1657Y138D02*
X1663Y138D01*
X1705Y138D02*
X1711Y138D01*
X1070Y137D02*
X1077Y137D01*
X1112Y137D02*
X1140Y137D01*
X1164Y137D02*
X1186Y137D01*
X1206Y137D02*
X1231Y137D01*
X1253Y137D02*
X1259Y137D01*
X1261Y137D02*
X1279Y137D01*
X1306Y137D02*
X1327Y137D01*
X1348Y137D02*
X1354Y137D01*
X1359Y137D02*
X1377Y137D01*
X1443Y137D02*
X1448Y137D01*
X1469Y137D02*
X1474Y137D01*
X1492Y137D02*
X1499Y137D01*
X1537Y137D02*
X1543Y137D01*
X1563Y137D02*
X1569Y137D01*
X1632Y137D02*
X1638Y137D01*
X1656Y137D02*
X1663Y137D01*
X1705Y137D02*
X1711Y137D01*
X1071Y136D02*
X1078Y136D01*
X1112Y136D02*
X1140Y136D01*
X1163Y136D02*
X1187Y136D01*
X1206Y136D02*
X1232Y136D01*
X1253Y136D02*
X1280Y136D01*
X1305Y136D02*
X1329Y136D01*
X1348Y136D02*
X1354Y136D01*
X1358Y136D02*
X1378Y136D01*
X1443Y136D02*
X1448Y136D01*
X1469Y136D02*
X1474Y136D01*
X1492Y136D02*
X1498Y136D01*
X1537Y136D02*
X1543Y136D01*
X1563Y136D02*
X1569Y136D01*
X1633Y136D02*
X1639Y136D01*
X1656Y136D02*
X1662Y136D01*
X1705Y136D02*
X1711Y136D01*
X1071Y135D02*
X1079Y135D01*
X1112Y135D02*
X1139Y135D01*
X1162Y135D02*
X1188Y135D01*
X1206Y135D02*
X1234Y135D01*
X1253Y135D02*
X1281Y135D01*
X1304Y135D02*
X1330Y135D01*
X1348Y135D02*
X1354Y135D01*
X1357Y135D02*
X1378Y135D01*
X1443Y135D02*
X1448Y135D01*
X1469Y135D02*
X1474Y135D01*
X1491Y135D02*
X1498Y135D01*
X1537Y135D02*
X1543Y135D01*
X1562Y135D02*
X1568Y135D01*
X1633Y135D02*
X1639Y135D01*
X1656Y135D02*
X1662Y135D01*
X1705Y135D02*
X1711Y135D01*
X1072Y134D02*
X1080Y134D01*
X1113Y134D02*
X1138Y134D01*
X1161Y134D02*
X1189Y134D01*
X1206Y134D02*
X1219Y134D01*
X1225Y134D02*
X1235Y134D01*
X1253Y134D02*
X1266Y134D01*
X1273Y134D02*
X1282Y134D01*
X1303Y134D02*
X1330Y134D01*
X1348Y134D02*
X1354Y134D01*
X1356Y134D02*
X1379Y134D01*
X1443Y134D02*
X1448Y134D01*
X1469Y134D02*
X1474Y134D01*
X1491Y134D02*
X1497Y134D01*
X1537Y134D02*
X1543Y134D01*
X1561Y134D02*
X1568Y134D01*
X1633Y134D02*
X1640Y134D01*
X1655Y134D02*
X1661Y134D01*
X1705Y134D02*
X1711Y134D01*
X1073Y133D02*
X1080Y133D01*
X1118Y133D02*
X1124Y133D01*
X1160Y133D02*
X1168Y133D01*
X1181Y133D02*
X1189Y133D01*
X1206Y133D02*
X1218Y133D01*
X1227Y133D02*
X1235Y133D01*
X1253Y133D02*
X1265Y133D01*
X1274Y133D02*
X1283Y133D01*
X1302Y133D02*
X1310Y133D01*
X1323Y133D02*
X1331Y133D01*
X1348Y133D02*
X1364Y133D01*
X1372Y133D02*
X1379Y133D01*
X1443Y133D02*
X1448Y133D01*
X1469Y133D02*
X1474Y133D01*
X1491Y133D02*
X1497Y133D01*
X1537Y133D02*
X1543Y133D01*
X1560Y133D02*
X1568Y133D01*
X1634Y133D02*
X1640Y133D01*
X1655Y133D02*
X1661Y133D01*
X1705Y133D02*
X1711Y133D01*
X1074Y132D02*
X1081Y132D01*
X1118Y132D02*
X1124Y132D01*
X1160Y132D02*
X1167Y132D01*
X1183Y132D02*
X1190Y132D01*
X1206Y132D02*
X1217Y132D01*
X1228Y132D02*
X1236Y132D01*
X1253Y132D02*
X1264Y132D01*
X1275Y132D02*
X1283Y132D01*
X1302Y132D02*
X1309Y132D01*
X1324Y132D02*
X1332Y132D01*
X1348Y132D02*
X1363Y132D01*
X1373Y132D02*
X1380Y132D01*
X1443Y132D02*
X1448Y132D01*
X1469Y132D02*
X1474Y132D01*
X1490Y132D02*
X1496Y132D01*
X1537Y132D02*
X1543Y132D01*
X1558Y132D02*
X1567Y132D01*
X1634Y132D02*
X1640Y132D01*
X1654Y132D02*
X1661Y132D01*
X1705Y132D02*
X1711Y132D01*
X1074Y131D02*
X1082Y131D01*
X1118Y131D02*
X1124Y131D01*
X1159Y131D02*
X1166Y131D01*
X1184Y131D02*
X1190Y131D01*
X1206Y131D02*
X1216Y131D01*
X1229Y131D02*
X1237Y131D01*
X1253Y131D02*
X1263Y131D01*
X1276Y131D02*
X1284Y131D01*
X1301Y131D02*
X1308Y131D01*
X1325Y131D02*
X1332Y131D01*
X1348Y131D02*
X1362Y131D01*
X1374Y131D02*
X1380Y131D01*
X1443Y131D02*
X1448Y131D01*
X1468Y131D02*
X1474Y131D01*
X1490Y131D02*
X1496Y131D01*
X1537Y131D02*
X1566Y131D01*
X1635Y131D02*
X1641Y131D01*
X1654Y131D02*
X1660Y131D01*
X1683Y131D02*
X1710Y131D01*
X1075Y130D02*
X1083Y130D01*
X1118Y130D02*
X1124Y130D01*
X1159Y130D02*
X1165Y130D01*
X1184Y130D02*
X1190Y130D01*
X1206Y130D02*
X1215Y130D01*
X1230Y130D02*
X1237Y130D01*
X1253Y130D02*
X1262Y130D01*
X1277Y130D02*
X1285Y130D01*
X1301Y130D02*
X1307Y130D01*
X1326Y130D02*
X1332Y130D01*
X1348Y130D02*
X1360Y130D01*
X1374Y130D02*
X1380Y130D01*
X1443Y130D02*
X1448Y130D01*
X1468Y130D02*
X1474Y130D01*
X1490Y130D02*
X1496Y130D01*
X1537Y130D02*
X1566Y130D01*
X1635Y130D02*
X1641Y130D01*
X1654Y130D02*
X1660Y130D01*
X1681Y130D02*
X1710Y130D01*
X1076Y129D02*
X1083Y129D01*
X1118Y129D02*
X1124Y129D01*
X1159Y129D02*
X1165Y129D01*
X1185Y129D02*
X1191Y129D01*
X1206Y129D02*
X1214Y129D01*
X1231Y129D02*
X1238Y129D01*
X1253Y129D02*
X1261Y129D01*
X1278Y129D02*
X1285Y129D01*
X1301Y129D02*
X1307Y129D01*
X1327Y129D02*
X1332Y129D01*
X1348Y129D02*
X1359Y129D01*
X1374Y129D02*
X1380Y129D01*
X1443Y129D02*
X1449Y129D01*
X1465Y129D02*
X1474Y129D01*
X1490Y129D02*
X1495Y129D01*
X1537Y129D02*
X1565Y129D01*
X1635Y129D02*
X1642Y129D01*
X1653Y129D02*
X1659Y129D01*
X1680Y129D02*
X1710Y129D01*
X1077Y128D02*
X1084Y128D01*
X1118Y128D02*
X1124Y128D01*
X1159Y128D02*
X1165Y128D01*
X1185Y128D02*
X1191Y128D01*
X1206Y128D02*
X1213Y128D01*
X1232Y128D02*
X1238Y128D01*
X1253Y128D02*
X1260Y128D01*
X1279Y128D02*
X1285Y128D01*
X1301Y128D02*
X1306Y128D01*
X1327Y128D02*
X1332Y128D01*
X1348Y128D02*
X1358Y128D01*
X1374Y128D02*
X1380Y128D01*
X1443Y128D02*
X1473Y128D01*
X1490Y128D02*
X1495Y128D01*
X1537Y128D02*
X1565Y128D01*
X1636Y128D02*
X1642Y128D01*
X1653Y128D02*
X1659Y128D01*
X1680Y128D02*
X1709Y128D01*
X1077Y127D02*
X1085Y127D01*
X1118Y127D02*
X1124Y127D01*
X1159Y127D02*
X1165Y127D01*
X1185Y127D02*
X1191Y127D01*
X1206Y127D02*
X1212Y127D01*
X1232Y127D02*
X1238Y127D01*
X1253Y127D02*
X1259Y127D01*
X1279Y127D02*
X1285Y127D01*
X1301Y127D02*
X1306Y127D01*
X1327Y127D02*
X1332Y127D01*
X1348Y127D02*
X1357Y127D01*
X1374Y127D02*
X1379Y127D01*
X1443Y127D02*
X1473Y127D01*
X1490Y127D02*
X1496Y127D01*
X1537Y127D02*
X1565Y127D01*
X1636Y127D02*
X1642Y127D01*
X1652Y127D02*
X1659Y127D01*
X1679Y127D02*
X1708Y127D01*
X1078Y126D02*
X1086Y126D01*
X1118Y126D02*
X1124Y126D01*
X1159Y126D02*
X1165Y126D01*
X1185Y126D02*
X1191Y126D01*
X1206Y126D02*
X1212Y126D01*
X1232Y126D02*
X1238Y126D01*
X1253Y126D02*
X1259Y126D01*
X1280Y126D02*
X1285Y126D01*
X1301Y126D02*
X1306Y126D01*
X1327Y126D02*
X1332Y126D01*
X1348Y126D02*
X1356Y126D01*
X1375Y126D02*
X1379Y126D01*
X1443Y126D02*
X1472Y126D01*
X1490Y126D02*
X1496Y126D01*
X1537Y126D02*
X1566Y126D01*
X1637Y126D02*
X1643Y126D01*
X1652Y126D02*
X1658Y126D01*
X1679Y126D02*
X1707Y126D01*
X1079Y125D02*
X1087Y125D01*
X1118Y125D02*
X1124Y125D01*
X1159Y125D02*
X1165Y125D01*
X1185Y125D02*
X1191Y125D01*
X1206Y125D02*
X1212Y125D01*
X1232Y125D02*
X1238Y125D01*
X1253Y125D02*
X1259Y125D01*
X1280Y125D02*
X1285Y125D01*
X1301Y125D02*
X1306Y125D01*
X1327Y125D02*
X1332Y125D01*
X1348Y125D02*
X1355Y125D01*
X1443Y125D02*
X1471Y125D01*
X1490Y125D02*
X1496Y125D01*
X1537Y125D02*
X1543Y125D01*
X1558Y125D02*
X1567Y125D01*
X1637Y125D02*
X1643Y125D01*
X1652Y125D02*
X1658Y125D01*
X1679Y125D02*
X1685Y125D01*
X1080Y124D02*
X1087Y124D01*
X1118Y124D02*
X1124Y124D01*
X1159Y124D02*
X1165Y124D01*
X1185Y124D02*
X1191Y124D01*
X1206Y124D02*
X1212Y124D01*
X1232Y124D02*
X1238Y124D01*
X1253Y124D02*
X1259Y124D01*
X1280Y124D02*
X1285Y124D01*
X1301Y124D02*
X1306Y124D01*
X1327Y124D02*
X1332Y124D01*
X1348Y124D02*
X1354Y124D01*
X1443Y124D02*
X1470Y124D01*
X1491Y124D02*
X1497Y124D01*
X1537Y124D02*
X1543Y124D01*
X1560Y124D02*
X1568Y124D01*
X1637Y124D02*
X1644Y124D01*
X1651Y124D02*
X1657Y124D01*
X1679Y124D02*
X1684Y124D01*
X1081Y123D02*
X1088Y123D01*
X1118Y123D02*
X1124Y123D01*
X1159Y123D02*
X1191Y123D01*
X1206Y123D02*
X1212Y123D01*
X1232Y123D02*
X1238Y123D01*
X1253Y123D02*
X1259Y123D01*
X1280Y123D02*
X1285Y123D01*
X1301Y123D02*
X1332Y123D01*
X1348Y123D02*
X1354Y123D01*
X1443Y123D02*
X1468Y123D01*
X1491Y123D02*
X1497Y123D01*
X1537Y123D02*
X1543Y123D01*
X1561Y123D02*
X1568Y123D01*
X1638Y123D02*
X1644Y123D01*
X1651Y123D02*
X1657Y123D01*
X1679Y123D02*
X1684Y123D01*
X1081Y122D02*
X1089Y122D01*
X1118Y122D02*
X1124Y122D01*
X1159Y122D02*
X1191Y122D01*
X1206Y122D02*
X1212Y122D01*
X1232Y122D02*
X1238Y122D01*
X1253Y122D02*
X1259Y122D01*
X1280Y122D02*
X1285Y122D01*
X1301Y122D02*
X1332Y122D01*
X1348Y122D02*
X1354Y122D01*
X1443Y122D02*
X1448Y122D01*
X1491Y122D02*
X1498Y122D01*
X1537Y122D02*
X1543Y122D01*
X1562Y122D02*
X1568Y122D01*
X1638Y122D02*
X1644Y122D01*
X1651Y122D02*
X1657Y122D01*
X1679Y122D02*
X1684Y122D01*
X1082Y121D02*
X1090Y121D01*
X1118Y121D02*
X1124Y121D01*
X1159Y121D02*
X1191Y121D01*
X1206Y121D02*
X1212Y121D01*
X1232Y121D02*
X1238Y121D01*
X1253Y121D02*
X1259Y121D01*
X1280Y121D02*
X1285Y121D01*
X1301Y121D02*
X1332Y121D01*
X1348Y121D02*
X1354Y121D01*
X1443Y121D02*
X1448Y121D01*
X1492Y121D02*
X1498Y121D01*
X1537Y121D02*
X1543Y121D01*
X1563Y121D02*
X1568Y121D01*
X1639Y121D02*
X1645Y121D01*
X1650Y121D02*
X1656Y121D01*
X1679Y121D02*
X1684Y121D01*
X1083Y120D02*
X1090Y120D01*
X1118Y120D02*
X1124Y120D01*
X1159Y120D02*
X1191Y120D01*
X1206Y120D02*
X1212Y120D01*
X1232Y120D02*
X1238Y120D01*
X1253Y120D02*
X1259Y120D01*
X1280Y120D02*
X1285Y120D01*
X1301Y120D02*
X1332Y120D01*
X1348Y120D02*
X1354Y120D01*
X1443Y120D02*
X1448Y120D01*
X1492Y120D02*
X1499Y120D01*
X1537Y120D02*
X1543Y120D01*
X1563Y120D02*
X1569Y120D01*
X1639Y120D02*
X1645Y120D01*
X1650Y120D02*
X1656Y120D01*
X1679Y120D02*
X1684Y120D01*
X1084Y119D02*
X1091Y119D01*
X1118Y119D02*
X1124Y119D01*
X1159Y119D02*
X1190Y119D01*
X1206Y119D02*
X1212Y119D01*
X1232Y119D02*
X1238Y119D01*
X1253Y119D02*
X1259Y119D01*
X1280Y119D02*
X1285Y119D01*
X1301Y119D02*
X1332Y119D01*
X1348Y119D02*
X1354Y119D01*
X1443Y119D02*
X1448Y119D01*
X1493Y119D02*
X1499Y119D01*
X1537Y119D02*
X1543Y119D01*
X1563Y119D02*
X1569Y119D01*
X1639Y119D02*
X1645Y119D01*
X1649Y119D02*
X1655Y119D01*
X1679Y119D02*
X1684Y119D01*
X1084Y118D02*
X1092Y118D01*
X1118Y118D02*
X1124Y118D01*
X1159Y118D02*
X1190Y118D01*
X1206Y118D02*
X1212Y118D01*
X1232Y118D02*
X1238Y118D01*
X1253Y118D02*
X1259Y118D01*
X1280Y118D02*
X1285Y118D01*
X1301Y118D02*
X1332Y118D01*
X1348Y118D02*
X1354Y118D01*
X1443Y118D02*
X1448Y118D01*
X1493Y118D02*
X1500Y118D01*
X1537Y118D02*
X1543Y118D01*
X1563Y118D02*
X1569Y118D01*
X1640Y118D02*
X1646Y118D01*
X1649Y118D02*
X1655Y118D01*
X1679Y118D02*
X1684Y118D01*
X1085Y117D02*
X1093Y117D01*
X1118Y117D02*
X1124Y117D01*
X1159Y117D02*
X1188Y117D01*
X1206Y117D02*
X1212Y117D01*
X1232Y117D02*
X1238Y117D01*
X1253Y117D02*
X1259Y117D01*
X1280Y117D02*
X1285Y117D01*
X1301Y117D02*
X1330Y117D01*
X1348Y117D02*
X1354Y117D01*
X1443Y117D02*
X1448Y117D01*
X1494Y117D02*
X1500Y117D01*
X1537Y117D02*
X1543Y117D01*
X1563Y117D02*
X1569Y117D01*
X1640Y117D02*
X1646Y117D01*
X1649Y117D02*
X1655Y117D01*
X1679Y117D02*
X1684Y117D01*
X1086Y116D02*
X1094Y116D01*
X1118Y116D02*
X1124Y116D01*
X1159Y116D02*
X1165Y116D01*
X1206Y116D02*
X1212Y116D01*
X1232Y116D02*
X1238Y116D01*
X1253Y116D02*
X1259Y116D01*
X1279Y116D02*
X1285Y116D01*
X1301Y116D02*
X1306Y116D01*
X1348Y116D02*
X1354Y116D01*
X1443Y116D02*
X1448Y116D01*
X1494Y116D02*
X1501Y116D01*
X1537Y116D02*
X1543Y116D01*
X1563Y116D02*
X1569Y116D01*
X1640Y116D02*
X1654Y116D01*
X1679Y116D02*
X1684Y116D01*
X1087Y115D02*
X1094Y115D01*
X1118Y115D02*
X1124Y115D01*
X1159Y115D02*
X1165Y115D01*
X1206Y115D02*
X1213Y115D01*
X1232Y115D02*
X1238Y115D01*
X1253Y115D02*
X1260Y115D01*
X1279Y115D02*
X1285Y115D01*
X1301Y115D02*
X1306Y115D01*
X1348Y115D02*
X1354Y115D01*
X1443Y115D02*
X1448Y115D01*
X1495Y115D02*
X1501Y115D01*
X1537Y115D02*
X1543Y115D01*
X1563Y115D02*
X1569Y115D01*
X1641Y115D02*
X1654Y115D01*
X1679Y115D02*
X1684Y115D01*
X1065Y114D02*
X1069Y114D01*
X1088Y114D02*
X1095Y114D01*
X1118Y114D02*
X1124Y114D01*
X1139Y114D02*
X1142Y114D01*
X1159Y114D02*
X1165Y114D01*
X1206Y114D02*
X1214Y114D01*
X1231Y114D02*
X1238Y114D01*
X1253Y114D02*
X1261Y114D01*
X1279Y114D02*
X1285Y114D01*
X1301Y114D02*
X1307Y114D01*
X1348Y114D02*
X1354Y114D01*
X1443Y114D02*
X1448Y114D01*
X1495Y114D02*
X1502Y114D01*
X1537Y114D02*
X1543Y114D01*
X1563Y114D02*
X1569Y114D01*
X1641Y114D02*
X1654Y114D01*
X1679Y114D02*
X1684Y114D01*
X1065Y113D02*
X1070Y113D01*
X1088Y113D02*
X1096Y113D01*
X1118Y113D02*
X1124Y113D01*
X1138Y113D02*
X1143Y113D01*
X1159Y113D02*
X1165Y113D01*
X1206Y113D02*
X1215Y113D01*
X1230Y113D02*
X1237Y113D01*
X1253Y113D02*
X1262Y113D01*
X1278Y113D02*
X1285Y113D01*
X1301Y113D02*
X1307Y113D01*
X1348Y113D02*
X1354Y113D01*
X1443Y113D02*
X1448Y113D01*
X1496Y113D02*
X1502Y113D01*
X1537Y113D02*
X1543Y113D01*
X1562Y113D02*
X1568Y113D01*
X1642Y113D02*
X1653Y113D01*
X1679Y113D02*
X1684Y113D01*
X1064Y112D02*
X1070Y112D01*
X1089Y112D02*
X1096Y112D01*
X1118Y112D02*
X1124Y112D01*
X1138Y112D02*
X1143Y112D01*
X1159Y112D02*
X1166Y112D01*
X1206Y112D02*
X1216Y112D01*
X1229Y112D02*
X1237Y112D01*
X1253Y112D02*
X1263Y112D01*
X1276Y112D02*
X1284Y112D01*
X1301Y112D02*
X1308Y112D01*
X1348Y112D02*
X1354Y112D01*
X1443Y112D02*
X1448Y112D01*
X1496Y112D02*
X1503Y112D01*
X1537Y112D02*
X1543Y112D01*
X1562Y112D02*
X1568Y112D01*
X1642Y112D02*
X1653Y112D01*
X1679Y112D02*
X1684Y112D01*
X1064Y111D02*
X1070Y111D01*
X1090Y111D02*
X1096Y111D01*
X1118Y111D02*
X1124Y111D01*
X1137Y111D02*
X1143Y111D01*
X1160Y111D02*
X1167Y111D01*
X1206Y111D02*
X1217Y111D01*
X1228Y111D02*
X1236Y111D01*
X1253Y111D02*
X1264Y111D01*
X1275Y111D02*
X1284Y111D01*
X1301Y111D02*
X1309Y111D01*
X1348Y111D02*
X1354Y111D01*
X1443Y111D02*
X1448Y111D01*
X1497Y111D02*
X1503Y111D01*
X1537Y111D02*
X1543Y111D01*
X1561Y111D02*
X1568Y111D01*
X1642Y111D02*
X1652Y111D01*
X1679Y111D02*
X1684Y111D01*
X1065Y110D02*
X1071Y110D01*
X1090Y110D02*
X1096Y110D01*
X1119Y110D02*
X1125Y110D01*
X1136Y110D02*
X1143Y110D01*
X1160Y110D02*
X1168Y110D01*
X1206Y110D02*
X1218Y110D01*
X1227Y110D02*
X1236Y110D01*
X1253Y110D02*
X1265Y110D01*
X1274Y110D02*
X1283Y110D01*
X1302Y110D02*
X1310Y110D01*
X1348Y110D02*
X1354Y110D01*
X1443Y110D02*
X1448Y110D01*
X1497Y110D02*
X1504Y110D01*
X1537Y110D02*
X1543Y110D01*
X1559Y110D02*
X1567Y110D01*
X1643Y110D02*
X1652Y110D01*
X1679Y110D02*
X1684Y110D01*
X1065Y109D02*
X1096Y109D01*
X1119Y109D02*
X1143Y109D01*
X1161Y109D02*
X1189Y109D01*
X1206Y109D02*
X1219Y109D01*
X1226Y109D02*
X1235Y109D01*
X1253Y109D02*
X1266Y109D01*
X1273Y109D02*
X1282Y109D01*
X1302Y109D02*
X1331Y109D01*
X1348Y109D02*
X1354Y109D01*
X1443Y109D02*
X1448Y109D01*
X1498Y109D02*
X1520Y109D01*
X1537Y109D02*
X1567Y109D01*
X1643Y109D02*
X1652Y109D01*
X1679Y109D02*
X1709Y109D01*
X1065Y108D02*
X1096Y108D01*
X1119Y108D02*
X1142Y108D01*
X1162Y108D02*
X1190Y108D01*
X1206Y108D02*
X1234Y108D01*
X1253Y108D02*
X1281Y108D01*
X1303Y108D02*
X1332Y108D01*
X1348Y108D02*
X1354Y108D01*
X1443Y108D02*
X1448Y108D01*
X1498Y108D02*
X1521Y108D01*
X1537Y108D02*
X1566Y108D01*
X1644Y108D02*
X1651Y108D01*
X1679Y108D02*
X1710Y108D01*
X1066Y107D02*
X1095Y107D01*
X1120Y107D02*
X1141Y107D01*
X1163Y107D02*
X1190Y107D01*
X1206Y107D02*
X1232Y107D01*
X1253Y107D02*
X1280Y107D01*
X1304Y107D02*
X1332Y107D01*
X1348Y107D02*
X1354Y107D01*
X1443Y107D02*
X1448Y107D01*
X1499Y107D02*
X1521Y107D01*
X1537Y107D02*
X1565Y107D01*
X1644Y107D02*
X1651Y107D01*
X1679Y107D02*
X1710Y107D01*
X1067Y106D02*
X1095Y106D01*
X1121Y106D02*
X1141Y106D01*
X1164Y106D02*
X1191Y106D01*
X1206Y106D02*
X1231Y106D01*
X1253Y106D02*
X1279Y106D01*
X1305Y106D02*
X1332Y106D01*
X1348Y106D02*
X1354Y106D01*
X1443Y106D02*
X1448Y106D01*
X1500Y106D02*
X1521Y106D01*
X1537Y106D02*
X1564Y106D01*
X1644Y106D02*
X1650Y106D01*
X1679Y106D02*
X1710Y106D01*
X1068Y105D02*
X1094Y105D01*
X1122Y105D02*
X1140Y105D01*
X1165Y105D02*
X1190Y105D01*
X1206Y105D02*
X1212Y105D01*
X1214Y105D02*
X1230Y105D01*
X1253Y105D02*
X1259Y105D01*
X1261Y105D02*
X1277Y105D01*
X1307Y105D02*
X1332Y105D01*
X1348Y105D02*
X1353Y105D01*
X1443Y105D02*
X1448Y105D01*
X1501Y105D02*
X1521Y105D01*
X1537Y105D02*
X1563Y105D01*
X1645Y105D02*
X1650Y105D01*
X1679Y105D02*
X1710Y105D01*
X1069Y104D02*
X1093Y104D01*
X1123Y104D02*
X1138Y104D01*
X1166Y104D02*
X1190Y104D01*
X1206Y104D02*
X1212Y104D01*
X1215Y104D02*
X1229Y104D01*
X1253Y104D02*
X1259Y104D01*
X1262Y104D02*
X1276Y104D01*
X1308Y104D02*
X1332Y104D01*
X1349Y104D02*
X1353Y104D01*
X1443Y104D02*
X1447Y104D01*
X1502Y104D02*
X1521Y104D01*
X1537Y104D02*
X1561Y104D01*
X1645Y104D02*
X1649Y104D01*
X1679Y104D02*
X1710Y104D01*
X1071Y103D02*
X1090Y103D01*
X1126Y103D02*
X1135Y103D01*
X1169Y103D02*
X1188Y103D01*
X1206Y103D02*
X1212Y103D01*
X1217Y103D02*
X1228Y103D01*
X1253Y103D02*
X1259Y103D01*
X1264Y103D02*
X1275Y103D01*
X1311Y103D02*
X1330Y103D01*
X1350Y103D02*
X1351Y103D01*
X1445Y103D02*
X1446Y103D01*
X1506Y103D02*
X1519Y103D01*
X1537Y103D02*
X1558Y103D01*
X1647Y103D02*
X1648Y103D01*
X1679Y103D02*
X1708Y103D01*
X1206Y102D02*
X1212Y102D01*
X1219Y102D02*
X1226Y102D01*
X1253Y102D02*
X1259Y102D01*
X1266Y102D02*
X1273Y102D01*
X1206Y101D02*
X1212Y101D01*
X1253Y101D02*
X1259Y101D01*
X1206Y100D02*
X1212Y100D01*
X1253Y100D02*
X1259Y100D01*
X1206Y99D02*
X1212Y99D01*
X1253Y99D02*
X1259Y99D01*
X1206Y98D02*
X1212Y98D01*
X1253Y98D02*
X1259Y98D01*
X1206Y97D02*
X1212Y97D01*
X1253Y97D02*
X1259Y97D01*
X1206Y96D02*
X1212Y96D01*
X1253Y96D02*
X1259Y96D01*
X1206Y95D02*
X1212Y95D01*
X1253Y95D02*
X1259Y95D01*
X1206Y94D02*
X1212Y94D01*
X1253Y94D02*
X1259Y94D01*
X1206Y93D02*
X1212Y93D01*
X1253Y93D02*
X1259Y93D01*
X1206Y92D02*
X1212Y92D01*
X1253Y92D02*
X1259Y92D01*
X1206Y91D02*
X1212Y91D01*
X1254Y91D02*
X1259Y91D01*
X1207Y90D02*
X1211Y90D01*
X1254Y90D02*
X1258Y90D01*
X1209Y89D02*
X1209Y89D01*
X1256Y89D02*
X1256Y89D01*
D02*
G04 End of Copper1*
M02*