G04 MADE WITH FRITZING*
G04 WWW.FRITZING.ORG*
G04 DOUBLE SIDED*
G04 HOLES PLATED*
G04 CONTOUR ON CENTER OF CONTOUR VECTOR*
%ASAXBY*%
%FSLAX23Y23*%
%MOIN*%
%OFA0B0*%
%SFA1.0B1.0*%
%ADD10C,0.075000*%
%ADD11C,0.094488*%
%ADD12C,0.075361*%
%ADD13R,0.075000X0.075000*%
%ADD14C,0.024000*%
%ADD15C,0.011111*%
%LNCOPPER0*%
G90*
G70*
G54D10*
X989Y984D03*
X989Y1284D03*
X1089Y984D03*
X1089Y1284D03*
X1189Y984D03*
X1189Y1284D03*
X1289Y984D03*
X1289Y1284D03*
X1389Y984D03*
X1389Y1284D03*
X1489Y984D03*
X1489Y1284D03*
X1589Y984D03*
X1589Y1284D03*
X1689Y984D03*
X1689Y1284D03*
G54D11*
X980Y1505D03*
X500Y1925D03*
X1910Y1605D03*
X990Y325D03*
X1900Y1895D03*
X800Y1805D03*
X1190Y1605D03*
X140Y1615D03*
X140Y795D03*
X1480Y1695D03*
X340Y1695D03*
X340Y805D03*
X880Y535D03*
X830Y425D03*
G54D12*
X100Y2045D03*
X200Y2045D03*
X300Y2045D03*
X400Y2045D03*
X500Y2045D03*
X600Y2045D03*
X700Y2045D03*
X800Y2045D03*
X900Y2045D03*
X1000Y2045D03*
X1100Y2045D03*
X1200Y2045D03*
X1300Y2045D03*
X1400Y2045D03*
X1500Y2045D03*
X1600Y2045D03*
X1700Y2045D03*
X1800Y2045D03*
X1900Y2045D03*
X2000Y2045D03*
X2000Y2145D03*
X1900Y2145D03*
X1800Y2145D03*
X1700Y2145D03*
X1600Y2145D03*
X1500Y2145D03*
X1400Y2145D03*
X1300Y2145D03*
X1200Y2145D03*
X1100Y2145D03*
X1000Y2145D03*
X900Y2145D03*
X800Y2145D03*
X700Y2145D03*
X600Y2145D03*
X500Y2145D03*
X400Y2145D03*
X300Y2145D03*
X200Y2145D03*
X100Y2145D03*
G54D11*
X1090Y1505D03*
X1690Y805D03*
X890Y815D03*
X990Y695D03*
X680Y1815D03*
X1880Y1285D03*
G54D13*
X989Y984D03*
G54D14*
X140Y822D02*
X140Y1588D01*
D02*
X340Y1668D02*
X340Y832D01*
G54D15*
D02*
X988Y1308D02*
X981Y1484D01*
G54D14*
D02*
X527Y1925D02*
X1292Y1926D01*
D02*
X1292Y1926D02*
X1290Y1313D01*
D02*
X1588Y1608D02*
X1589Y1313D01*
D02*
X1883Y1605D02*
X1588Y1608D01*
D02*
X1090Y1478D02*
X1090Y1313D01*
D02*
X1481Y1668D02*
X1489Y1313D01*
D02*
X1190Y1578D02*
X1189Y1313D01*
D02*
X1690Y832D02*
X1690Y956D01*
D02*
X880Y1506D02*
X890Y842D01*
D02*
X953Y1505D02*
X880Y1506D01*
D02*
X2028Y1895D02*
X2039Y567D01*
D02*
X2039Y567D02*
X1589Y567D01*
D02*
X1927Y1895D02*
X2028Y1895D01*
D02*
X1589Y567D02*
X1589Y956D01*
D02*
X1489Y423D02*
X1489Y956D01*
D02*
X857Y425D02*
X1489Y423D01*
D02*
X1189Y534D02*
X1189Y956D01*
D02*
X907Y535D02*
X1189Y534D01*
D02*
X800Y1778D02*
X800Y613D01*
D02*
X800Y613D02*
X1089Y606D01*
D02*
X1089Y606D02*
X1089Y956D01*
D02*
X990Y722D02*
X989Y956D01*
D02*
X61Y1817D02*
X653Y1815D01*
D02*
X61Y334D02*
X61Y1817D01*
D02*
X963Y325D02*
X61Y334D01*
D02*
X1853Y1285D02*
X1718Y1285D01*
G04 End of Copper0*
M02*