G04 MADE WITH FRITZING*
G04 WWW.FRITZING.ORG*
G04 DOUBLE SIDED*
G04 HOLES PLATED*
G04 CONTOUR ON CENTER OF CONTOUR VECTOR*
%ASAXBY*%
%FSLAX23Y23*%
%MOIN*%
%OFA0B0*%
%SFA1.0B1.0*%
%ADD10R,2.165350X2.244090X2.149350X2.228090*%
%ADD11C,0.008000*%
%ADD12C,0.010000*%
%ADD13C,0.005000*%
%ADD14R,0.001000X0.001000*%
%LNSILK1*%
G90*
G70*
G54D11*
X4Y2240D02*
X2161Y2240D01*
X2161Y4D01*
X4Y4D01*
X4Y2240D01*
D02*
G54D12*
X939Y934D02*
X1739Y934D01*
D02*
X1739Y934D02*
X1739Y1334D01*
D02*
X1739Y1334D02*
X939Y1334D01*
D02*
X939Y934D02*
X939Y1084D01*
D02*
X939Y1184D02*
X939Y1334D01*
G54D13*
D02*
X690Y488D02*
X90Y488D01*
D02*
X90Y488D02*
X90Y389D01*
D02*
X90Y389D02*
X140Y389D01*
D02*
X140Y389D02*
X240Y389D01*
D02*
X240Y389D02*
X340Y389D01*
D02*
X340Y389D02*
X440Y389D01*
D02*
X440Y389D02*
X540Y389D01*
D02*
X540Y389D02*
X640Y389D01*
D02*
X640Y389D02*
X690Y389D01*
D02*
X690Y389D02*
X690Y488D01*
D02*
X640Y389D02*
X640Y153D01*
D02*
X540Y389D02*
X540Y153D01*
D02*
X440Y389D02*
X440Y153D01*
D02*
X340Y389D02*
X340Y153D01*
D02*
X240Y389D02*
X240Y153D01*
D02*
X140Y389D02*
X140Y153D01*
G54D14*
X2150Y2121D02*
X2165Y2121D01*
X2149Y2120D02*
X2163Y2120D01*
X2148Y2119D02*
X2162Y2119D01*
X2147Y2118D02*
X2161Y2118D01*
X2146Y2117D02*
X2160Y2117D01*
X2145Y2116D02*
X2158Y2116D01*
X2144Y2115D02*
X2157Y2115D01*
X2144Y2114D02*
X2156Y2114D01*
X2143Y2113D02*
X2155Y2113D01*
X2142Y2112D02*
X2154Y2112D01*
X2142Y2111D02*
X2153Y2111D01*
X2141Y2110D02*
X2153Y2110D01*
X2141Y2109D02*
X2152Y2109D01*
X2140Y2108D02*
X2151Y2108D01*
X2139Y2107D02*
X2150Y2107D01*
X2139Y2106D02*
X2150Y2106D01*
X2138Y2105D02*
X2149Y2105D01*
X2138Y2104D02*
X2148Y2104D01*
X2137Y2103D02*
X2148Y2103D01*
X2137Y2102D02*
X2147Y2102D01*
X2137Y2101D02*
X2147Y2101D01*
X2136Y2100D02*
X2146Y2100D01*
X2136Y2099D02*
X2146Y2099D01*
X2136Y2098D02*
X2145Y2098D01*
X2135Y2097D02*
X2145Y2097D01*
X2135Y2096D02*
X2145Y2096D01*
X2135Y2095D02*
X2144Y2095D01*
X2134Y2094D02*
X2144Y2094D01*
X2134Y2093D02*
X2144Y2093D01*
X2134Y2092D02*
X2143Y2092D01*
X2134Y2091D02*
X2143Y2091D01*
X2133Y2090D02*
X2143Y2090D01*
X2133Y2089D02*
X2143Y2089D01*
X2133Y2088D02*
X2143Y2088D01*
X2133Y2087D02*
X2142Y2087D01*
X2133Y2086D02*
X2142Y2086D01*
X2133Y2085D02*
X2142Y2085D01*
X2133Y2084D02*
X2142Y2084D01*
X2133Y2083D02*
X2142Y2083D01*
X2133Y2082D02*
X2142Y2082D01*
X2133Y2081D02*
X2142Y2081D01*
X2132Y2080D02*
X2142Y2080D01*
X2132Y2079D02*
X2142Y2079D01*
X2133Y2078D02*
X2142Y2078D01*
X2133Y2077D02*
X2142Y2077D01*
X2133Y2076D02*
X2142Y2076D01*
X2133Y2075D02*
X2142Y2075D01*
X2133Y2074D02*
X2142Y2074D01*
X2133Y2073D02*
X2142Y2073D01*
X2133Y2072D02*
X2142Y2072D01*
X2133Y2071D02*
X2143Y2071D01*
X2133Y2070D02*
X2143Y2070D01*
X2133Y2069D02*
X2143Y2069D01*
X2134Y2068D02*
X2143Y2068D01*
X2134Y2067D02*
X2143Y2067D01*
X2134Y2066D02*
X2144Y2066D01*
X2134Y2065D02*
X2144Y2065D01*
X2135Y2064D02*
X2144Y2064D01*
X2135Y2063D02*
X2145Y2063D01*
X2135Y2062D02*
X2145Y2062D01*
X2135Y2061D02*
X2145Y2061D01*
X2136Y2060D02*
X2146Y2060D01*
X2136Y2059D02*
X2146Y2059D01*
X2137Y2058D02*
X2147Y2058D01*
X2137Y2057D02*
X2147Y2057D01*
X2137Y2056D02*
X2148Y2056D01*
X2138Y2055D02*
X2148Y2055D01*
X2138Y2054D02*
X2149Y2054D01*
X2139Y2053D02*
X2150Y2053D01*
X2139Y2052D02*
X2150Y2052D01*
X2140Y2051D02*
X2151Y2051D01*
X2140Y2050D02*
X2152Y2050D01*
X2141Y2049D02*
X2152Y2049D01*
X2142Y2048D02*
X2153Y2048D01*
X2142Y2047D02*
X2154Y2047D01*
X2143Y2046D02*
X2155Y2046D01*
X2144Y2045D02*
X2156Y2045D01*
X2144Y2044D02*
X2157Y2044D01*
X2145Y2043D02*
X2158Y2043D01*
X2146Y2042D02*
X2159Y2042D01*
X2147Y2041D02*
X2160Y2041D01*
X2147Y2040D02*
X2162Y2040D01*
X2148Y2039D02*
X2163Y2039D01*
X2149Y2038D02*
X2165Y2038D01*
X1558Y1624D02*
X1589Y1624D01*
X1621Y1624D02*
X1639Y1624D01*
X1658Y1624D02*
X1677Y1624D01*
X1558Y1623D02*
X1590Y1623D01*
X1619Y1623D02*
X1640Y1623D01*
X1657Y1623D02*
X1677Y1623D01*
X1557Y1622D02*
X1590Y1622D01*
X1618Y1622D02*
X1640Y1622D01*
X1657Y1622D02*
X1677Y1622D01*
X1557Y1621D02*
X1591Y1621D01*
X1617Y1621D02*
X1641Y1621D01*
X1657Y1621D02*
X1677Y1621D01*
X1557Y1620D02*
X1590Y1620D01*
X1616Y1620D02*
X1640Y1620D01*
X1657Y1620D02*
X1677Y1620D01*
X1558Y1619D02*
X1590Y1619D01*
X1616Y1619D02*
X1640Y1619D01*
X1658Y1619D02*
X1677Y1619D01*
X1559Y1618D02*
X1588Y1618D01*
X1615Y1618D02*
X1638Y1618D01*
X1659Y1618D02*
X1677Y1618D01*
X1571Y1617D02*
X1577Y1617D01*
X1615Y1617D02*
X1622Y1617D01*
X1671Y1617D02*
X1677Y1617D01*
X1571Y1616D02*
X1577Y1616D01*
X1614Y1616D02*
X1621Y1616D01*
X1671Y1616D02*
X1677Y1616D01*
X1571Y1615D02*
X1577Y1615D01*
X1614Y1615D02*
X1621Y1615D01*
X1671Y1615D02*
X1677Y1615D01*
X1571Y1614D02*
X1577Y1614D01*
X1613Y1614D02*
X1620Y1614D01*
X1671Y1614D02*
X1677Y1614D01*
X1571Y1613D02*
X1577Y1613D01*
X1613Y1613D02*
X1620Y1613D01*
X1671Y1613D02*
X1677Y1613D01*
X1571Y1612D02*
X1577Y1612D01*
X1612Y1612D02*
X1619Y1612D01*
X1671Y1612D02*
X1677Y1612D01*
X1571Y1611D02*
X1577Y1611D01*
X1612Y1611D02*
X1619Y1611D01*
X1671Y1611D02*
X1677Y1611D01*
X1571Y1610D02*
X1577Y1610D01*
X1611Y1610D02*
X1618Y1610D01*
X1671Y1610D02*
X1677Y1610D01*
X1571Y1609D02*
X1577Y1609D01*
X1611Y1609D02*
X1618Y1609D01*
X1671Y1609D02*
X1677Y1609D01*
X1571Y1608D02*
X1577Y1608D01*
X1610Y1608D02*
X1617Y1608D01*
X1671Y1608D02*
X1677Y1608D01*
X1571Y1607D02*
X1577Y1607D01*
X1610Y1607D02*
X1617Y1607D01*
X1671Y1607D02*
X1677Y1607D01*
X1571Y1606D02*
X1577Y1606D01*
X1609Y1606D02*
X1616Y1606D01*
X1671Y1606D02*
X1677Y1606D01*
X1571Y1605D02*
X1577Y1605D01*
X1609Y1605D02*
X1616Y1605D01*
X1671Y1605D02*
X1677Y1605D01*
X1571Y1604D02*
X1577Y1604D01*
X1608Y1604D02*
X1615Y1604D01*
X1671Y1604D02*
X1677Y1604D01*
X1571Y1603D02*
X1577Y1603D01*
X1608Y1603D02*
X1615Y1603D01*
X1671Y1603D02*
X1677Y1603D01*
X1571Y1602D02*
X1577Y1602D01*
X1608Y1602D02*
X1614Y1602D01*
X1671Y1602D02*
X1677Y1602D01*
X1571Y1601D02*
X1577Y1601D01*
X1607Y1601D02*
X1614Y1601D01*
X1671Y1601D02*
X1677Y1601D01*
X1571Y1600D02*
X1577Y1600D01*
X1607Y1600D02*
X1613Y1600D01*
X1671Y1600D02*
X1677Y1600D01*
X1571Y1599D02*
X1577Y1599D01*
X1607Y1599D02*
X1613Y1599D01*
X1671Y1599D02*
X1677Y1599D01*
X1571Y1598D02*
X1577Y1598D01*
X1607Y1598D02*
X1613Y1598D01*
X1671Y1598D02*
X1677Y1598D01*
X1571Y1597D02*
X1577Y1597D01*
X1607Y1597D02*
X1613Y1597D01*
X1671Y1597D02*
X1677Y1597D01*
X1571Y1596D02*
X1577Y1596D01*
X1607Y1596D02*
X1613Y1596D01*
X1671Y1596D02*
X1677Y1596D01*
X1571Y1595D02*
X1577Y1595D01*
X1607Y1595D02*
X1613Y1595D01*
X1671Y1595D02*
X1677Y1595D01*
X1687Y1595D02*
X1688Y1595D01*
X1571Y1594D02*
X1577Y1594D01*
X1607Y1594D02*
X1614Y1594D01*
X1671Y1594D02*
X1677Y1594D01*
X1685Y1594D02*
X1690Y1594D01*
X1571Y1593D02*
X1577Y1593D01*
X1608Y1593D02*
X1614Y1593D01*
X1671Y1593D02*
X1677Y1593D01*
X1685Y1593D02*
X1690Y1593D01*
X1571Y1592D02*
X1577Y1592D01*
X1608Y1592D02*
X1615Y1592D01*
X1671Y1592D02*
X1677Y1592D01*
X1685Y1592D02*
X1691Y1592D01*
X1571Y1591D02*
X1577Y1591D01*
X1609Y1591D02*
X1615Y1591D01*
X1671Y1591D02*
X1677Y1591D01*
X1685Y1591D02*
X1691Y1591D01*
X1571Y1590D02*
X1577Y1590D01*
X1609Y1590D02*
X1616Y1590D01*
X1671Y1590D02*
X1677Y1590D01*
X1685Y1590D02*
X1691Y1590D01*
X1571Y1589D02*
X1577Y1589D01*
X1609Y1589D02*
X1616Y1589D01*
X1671Y1589D02*
X1677Y1589D01*
X1685Y1589D02*
X1691Y1589D01*
X1571Y1588D02*
X1577Y1588D01*
X1610Y1588D02*
X1617Y1588D01*
X1671Y1588D02*
X1677Y1588D01*
X1685Y1588D02*
X1691Y1588D01*
X1571Y1587D02*
X1577Y1587D01*
X1610Y1587D02*
X1617Y1587D01*
X1671Y1587D02*
X1677Y1587D01*
X1685Y1587D02*
X1691Y1587D01*
X1571Y1586D02*
X1577Y1586D01*
X1611Y1586D02*
X1618Y1586D01*
X1671Y1586D02*
X1677Y1586D01*
X1685Y1586D02*
X1691Y1586D01*
X1571Y1585D02*
X1577Y1585D01*
X1611Y1585D02*
X1618Y1585D01*
X1671Y1585D02*
X1677Y1585D01*
X1685Y1585D02*
X1691Y1585D01*
X1571Y1584D02*
X1577Y1584D01*
X1612Y1584D02*
X1619Y1584D01*
X1671Y1584D02*
X1677Y1584D01*
X1685Y1584D02*
X1691Y1584D01*
X1571Y1583D02*
X1577Y1583D01*
X1612Y1583D02*
X1619Y1583D01*
X1671Y1583D02*
X1677Y1583D01*
X1685Y1583D02*
X1691Y1583D01*
X1571Y1582D02*
X1577Y1582D01*
X1613Y1582D02*
X1620Y1582D01*
X1671Y1582D02*
X1677Y1582D01*
X1685Y1582D02*
X1691Y1582D01*
X1571Y1581D02*
X1577Y1581D01*
X1613Y1581D02*
X1620Y1581D01*
X1671Y1581D02*
X1677Y1581D01*
X1685Y1581D02*
X1691Y1581D01*
X1571Y1580D02*
X1577Y1580D01*
X1614Y1580D02*
X1621Y1580D01*
X1671Y1580D02*
X1677Y1580D01*
X1685Y1580D02*
X1691Y1580D01*
X1571Y1579D02*
X1577Y1579D01*
X1614Y1579D02*
X1621Y1579D01*
X1671Y1579D02*
X1677Y1579D01*
X1685Y1579D02*
X1691Y1579D01*
X1571Y1578D02*
X1577Y1578D01*
X1615Y1578D02*
X1623Y1578D01*
X1671Y1578D02*
X1677Y1578D01*
X1684Y1578D02*
X1691Y1578D01*
X1559Y1577D02*
X1589Y1577D01*
X1615Y1577D02*
X1639Y1577D01*
X1659Y1577D02*
X1691Y1577D01*
X1558Y1576D02*
X1590Y1576D01*
X1616Y1576D02*
X1640Y1576D01*
X1658Y1576D02*
X1691Y1576D01*
X1557Y1575D02*
X1590Y1575D01*
X1617Y1575D02*
X1640Y1575D01*
X1657Y1575D02*
X1691Y1575D01*
X1557Y1574D02*
X1591Y1574D01*
X1618Y1574D02*
X1641Y1574D01*
X1657Y1574D02*
X1691Y1574D01*
X1557Y1573D02*
X1590Y1573D01*
X1619Y1573D02*
X1640Y1573D01*
X1657Y1573D02*
X1690Y1573D01*
X1558Y1572D02*
X1590Y1572D01*
X1620Y1572D02*
X1640Y1572D01*
X1658Y1572D02*
X1690Y1572D01*
X1559Y1571D02*
X1589Y1571D01*
X1622Y1571D02*
X1639Y1571D01*
X1659Y1571D02*
X1688Y1571D01*
X726Y774D02*
X729Y774D01*
X750Y774D02*
X777Y774D01*
X802Y774D02*
X820Y774D01*
X725Y773D02*
X730Y773D01*
X750Y773D02*
X779Y773D01*
X801Y773D02*
X820Y773D01*
X725Y772D02*
X730Y772D01*
X750Y772D02*
X780Y772D01*
X801Y772D02*
X820Y772D01*
X725Y771D02*
X731Y771D01*
X750Y771D02*
X781Y771D01*
X800Y771D02*
X820Y771D01*
X725Y770D02*
X731Y770D01*
X750Y770D02*
X782Y770D01*
X801Y770D02*
X820Y770D01*
X725Y769D02*
X731Y769D01*
X750Y769D02*
X783Y769D01*
X801Y769D02*
X820Y769D01*
X725Y768D02*
X731Y768D01*
X750Y768D02*
X783Y768D01*
X802Y768D02*
X820Y768D01*
X725Y767D02*
X731Y767D01*
X750Y767D02*
X756Y767D01*
X776Y767D02*
X784Y767D01*
X814Y767D02*
X820Y767D01*
X725Y766D02*
X731Y766D01*
X750Y766D02*
X756Y766D01*
X777Y766D02*
X784Y766D01*
X814Y766D02*
X820Y766D01*
X725Y765D02*
X731Y765D01*
X750Y765D02*
X756Y765D01*
X778Y765D02*
X784Y765D01*
X814Y765D02*
X820Y765D01*
X725Y764D02*
X731Y764D01*
X750Y764D02*
X756Y764D01*
X778Y764D02*
X784Y764D01*
X814Y764D02*
X820Y764D01*
X725Y763D02*
X731Y763D01*
X750Y763D02*
X756Y763D01*
X778Y763D02*
X784Y763D01*
X814Y763D02*
X820Y763D01*
X725Y762D02*
X731Y762D01*
X750Y762D02*
X756Y762D01*
X778Y762D02*
X784Y762D01*
X814Y762D02*
X820Y762D01*
X725Y761D02*
X731Y761D01*
X750Y761D02*
X756Y761D01*
X778Y761D02*
X784Y761D01*
X814Y761D02*
X820Y761D01*
X725Y760D02*
X731Y760D01*
X750Y760D02*
X756Y760D01*
X778Y760D02*
X784Y760D01*
X814Y760D02*
X820Y760D01*
X725Y759D02*
X731Y759D01*
X750Y759D02*
X756Y759D01*
X778Y759D02*
X784Y759D01*
X814Y759D02*
X820Y759D01*
X725Y758D02*
X731Y758D01*
X750Y758D02*
X756Y758D01*
X778Y758D02*
X784Y758D01*
X814Y758D02*
X820Y758D01*
X725Y757D02*
X731Y757D01*
X750Y757D02*
X756Y757D01*
X778Y757D02*
X784Y757D01*
X814Y757D02*
X820Y757D01*
X725Y756D02*
X731Y756D01*
X750Y756D02*
X756Y756D01*
X778Y756D02*
X784Y756D01*
X814Y756D02*
X820Y756D01*
X725Y755D02*
X731Y755D01*
X750Y755D02*
X756Y755D01*
X778Y755D02*
X784Y755D01*
X814Y755D02*
X820Y755D01*
X725Y754D02*
X731Y754D01*
X750Y754D02*
X756Y754D01*
X778Y754D02*
X784Y754D01*
X814Y754D02*
X820Y754D01*
X725Y753D02*
X731Y753D01*
X750Y753D02*
X756Y753D01*
X778Y753D02*
X784Y753D01*
X814Y753D02*
X820Y753D01*
X725Y752D02*
X731Y752D01*
X750Y752D02*
X756Y752D01*
X778Y752D02*
X784Y752D01*
X814Y752D02*
X820Y752D01*
X725Y751D02*
X731Y751D01*
X750Y751D02*
X756Y751D01*
X778Y751D02*
X784Y751D01*
X814Y751D02*
X820Y751D01*
X725Y750D02*
X731Y750D01*
X750Y750D02*
X756Y750D01*
X778Y750D02*
X784Y750D01*
X814Y750D02*
X820Y750D01*
X725Y749D02*
X731Y749D01*
X750Y749D02*
X756Y749D01*
X777Y749D02*
X784Y749D01*
X814Y749D02*
X820Y749D01*
X725Y748D02*
X731Y748D01*
X750Y748D02*
X783Y748D01*
X814Y748D02*
X820Y748D01*
X725Y747D02*
X731Y747D01*
X750Y747D02*
X783Y747D01*
X814Y747D02*
X820Y747D01*
X725Y746D02*
X731Y746D01*
X750Y746D02*
X782Y746D01*
X814Y746D02*
X820Y746D01*
X707Y745D02*
X707Y745D01*
X725Y745D02*
X731Y745D01*
X750Y745D02*
X782Y745D01*
X814Y745D02*
X820Y745D01*
X831Y745D02*
X831Y745D01*
X705Y744D02*
X709Y744D01*
X725Y744D02*
X731Y744D01*
X750Y744D02*
X781Y744D01*
X814Y744D02*
X820Y744D01*
X829Y744D02*
X833Y744D01*
X704Y743D02*
X710Y743D01*
X725Y743D02*
X731Y743D01*
X750Y743D02*
X780Y743D01*
X814Y743D02*
X820Y743D01*
X828Y743D02*
X834Y743D01*
X704Y742D02*
X710Y742D01*
X725Y742D02*
X731Y742D01*
X750Y742D02*
X778Y742D01*
X814Y742D02*
X820Y742D01*
X828Y742D02*
X834Y742D01*
X704Y741D02*
X710Y741D01*
X725Y741D02*
X731Y741D01*
X750Y741D02*
X773Y741D01*
X814Y741D02*
X820Y741D01*
X828Y741D02*
X834Y741D01*
X704Y740D02*
X710Y740D01*
X725Y740D02*
X731Y740D01*
X750Y740D02*
X756Y740D01*
X814Y740D02*
X820Y740D01*
X828Y740D02*
X834Y740D01*
X704Y739D02*
X710Y739D01*
X725Y739D02*
X731Y739D01*
X750Y739D02*
X756Y739D01*
X814Y739D02*
X820Y739D01*
X828Y739D02*
X834Y739D01*
X704Y738D02*
X710Y738D01*
X725Y738D02*
X731Y738D01*
X750Y738D02*
X756Y738D01*
X814Y738D02*
X820Y738D01*
X828Y738D02*
X834Y738D01*
X704Y737D02*
X710Y737D01*
X725Y737D02*
X731Y737D01*
X750Y737D02*
X756Y737D01*
X814Y737D02*
X820Y737D01*
X828Y737D02*
X834Y737D01*
X704Y736D02*
X710Y736D01*
X725Y736D02*
X731Y736D01*
X750Y736D02*
X756Y736D01*
X814Y736D02*
X820Y736D01*
X828Y736D02*
X834Y736D01*
X704Y735D02*
X710Y735D01*
X725Y735D02*
X731Y735D01*
X750Y735D02*
X756Y735D01*
X814Y735D02*
X820Y735D01*
X828Y735D02*
X834Y735D01*
X704Y734D02*
X710Y734D01*
X725Y734D02*
X731Y734D01*
X750Y734D02*
X756Y734D01*
X814Y734D02*
X820Y734D01*
X828Y734D02*
X834Y734D01*
X704Y733D02*
X710Y733D01*
X725Y733D02*
X731Y733D01*
X750Y733D02*
X756Y733D01*
X814Y733D02*
X820Y733D01*
X828Y733D02*
X834Y733D01*
X704Y732D02*
X710Y732D01*
X725Y732D02*
X731Y732D01*
X750Y732D02*
X756Y732D01*
X814Y732D02*
X820Y732D01*
X828Y732D02*
X834Y732D01*
X704Y731D02*
X710Y731D01*
X725Y731D02*
X731Y731D01*
X750Y731D02*
X756Y731D01*
X814Y731D02*
X820Y731D01*
X828Y731D02*
X834Y731D01*
X704Y730D02*
X710Y730D01*
X724Y730D02*
X730Y730D01*
X750Y730D02*
X756Y730D01*
X814Y730D02*
X820Y730D01*
X828Y730D02*
X834Y730D01*
X704Y729D02*
X710Y729D01*
X724Y729D02*
X730Y729D01*
X750Y729D02*
X756Y729D01*
X814Y729D02*
X820Y729D01*
X828Y729D02*
X834Y729D01*
X704Y728D02*
X712Y728D01*
X723Y728D02*
X730Y728D01*
X750Y728D02*
X756Y728D01*
X814Y728D02*
X820Y728D01*
X828Y728D02*
X834Y728D01*
X705Y727D02*
X730Y727D01*
X750Y727D02*
X756Y727D01*
X802Y727D02*
X834Y727D01*
X705Y726D02*
X729Y726D01*
X750Y726D02*
X756Y726D01*
X801Y726D02*
X834Y726D01*
X706Y725D02*
X729Y725D01*
X750Y725D02*
X756Y725D01*
X801Y725D02*
X834Y725D01*
X707Y724D02*
X728Y724D01*
X750Y724D02*
X756Y724D01*
X800Y724D02*
X834Y724D01*
X708Y723D02*
X727Y723D01*
X751Y723D02*
X756Y723D01*
X801Y723D02*
X834Y723D01*
X709Y722D02*
X726Y722D01*
X751Y722D02*
X756Y722D01*
X801Y722D02*
X833Y722D01*
X711Y721D02*
X723Y721D01*
X752Y721D02*
X755Y721D01*
X802Y721D02*
X832Y721D01*
X2150Y192D02*
X2165Y192D01*
X2149Y191D02*
X2164Y191D01*
X2148Y190D02*
X2162Y190D01*
X2147Y189D02*
X2161Y189D01*
X2146Y188D02*
X2160Y188D01*
X2145Y187D02*
X2158Y187D01*
X2144Y186D02*
X2157Y186D01*
X2144Y185D02*
X2156Y185D01*
X2143Y184D02*
X2155Y184D01*
X2142Y183D02*
X2154Y183D01*
X2142Y182D02*
X2154Y182D01*
X2141Y181D02*
X2153Y181D01*
X2141Y180D02*
X2152Y180D01*
X2140Y179D02*
X2151Y179D01*
X2139Y178D02*
X2150Y178D01*
X2139Y177D02*
X2150Y177D01*
X2138Y176D02*
X2149Y176D01*
X2138Y175D02*
X2149Y175D01*
X2137Y174D02*
X2148Y174D01*
X2137Y173D02*
X2147Y173D01*
X2137Y172D02*
X2147Y172D01*
X2136Y171D02*
X2146Y171D01*
X2136Y170D02*
X2146Y170D01*
X2136Y169D02*
X2145Y169D01*
X2135Y168D02*
X2145Y168D01*
X2135Y167D02*
X2145Y167D01*
X2135Y166D02*
X2144Y166D01*
X2134Y165D02*
X2144Y165D01*
X2134Y164D02*
X2144Y164D01*
X2134Y163D02*
X2144Y163D01*
X2134Y162D02*
X2143Y162D01*
X2133Y161D02*
X2143Y161D01*
X2133Y160D02*
X2143Y160D01*
X2133Y159D02*
X2143Y159D01*
X2133Y158D02*
X2142Y158D01*
X2133Y157D02*
X2142Y157D01*
X2133Y156D02*
X2142Y156D01*
X2133Y155D02*
X2142Y155D01*
X2133Y154D02*
X2142Y154D01*
X2133Y153D02*
X2142Y153D01*
X2133Y152D02*
X2142Y152D01*
X2132Y151D02*
X2142Y151D01*
X2132Y150D02*
X2142Y150D01*
X2133Y149D02*
X2142Y149D01*
X2133Y148D02*
X2142Y148D01*
X2133Y147D02*
X2142Y147D01*
X2133Y146D02*
X2142Y146D01*
X2133Y145D02*
X2142Y145D01*
X2133Y144D02*
X2142Y144D01*
X2133Y143D02*
X2142Y143D01*
X2133Y142D02*
X2143Y142D01*
X2133Y141D02*
X2143Y141D01*
X2133Y140D02*
X2143Y140D01*
X2134Y139D02*
X2143Y139D01*
X2134Y138D02*
X2143Y138D01*
X2134Y137D02*
X2144Y137D01*
X2134Y136D02*
X2144Y136D01*
X2135Y135D02*
X2144Y135D01*
X2135Y134D02*
X2145Y134D01*
X2135Y133D02*
X2145Y133D01*
X2135Y132D02*
X2145Y132D01*
X2136Y131D02*
X2146Y131D01*
X2136Y130D02*
X2146Y130D01*
X2137Y129D02*
X2147Y129D01*
X2137Y128D02*
X2147Y128D01*
X2137Y127D02*
X2148Y127D01*
X2138Y126D02*
X2148Y126D01*
X2138Y125D02*
X2149Y125D01*
X2139Y124D02*
X2150Y124D01*
X2139Y123D02*
X2150Y123D01*
X2140Y122D02*
X2151Y122D01*
X2140Y121D02*
X2152Y121D01*
X2141Y120D02*
X2152Y120D01*
X2142Y119D02*
X2153Y119D01*
X2142Y118D02*
X2154Y118D01*
X2143Y117D02*
X2155Y117D01*
X2143Y116D02*
X2156Y116D01*
X2144Y115D02*
X2157Y115D01*
X2145Y114D02*
X2158Y114D01*
X2146Y113D02*
X2159Y113D01*
X2147Y112D02*
X2160Y112D01*
X2147Y111D02*
X2162Y111D01*
X2148Y110D02*
X2163Y110D01*
X2149Y109D02*
X2165Y109D01*
D02*
G04 End of Silk1*
M02*