; NON-PLATED HOLES START AT T1
; THROUGH (PLATED) HOLES START AT T100
M48
INCH
T1C0.055118
T100C0.040639
T101C0.031496
T102C0.035000
%
T1
X005902Y004383
X001902Y004383
T100
X002002Y021451
X008002Y021451
X005002Y020451
X006002Y020451
X007002Y021451
X016002Y021451
X014002Y021451
X008002Y020451
X011002Y021451
X020002Y020451
X001002Y020451
X020002Y021451
X006002Y021451
X016002Y020451
X003002Y021451
X004002Y021451
X015002Y020451
X013002Y020451
X018002Y020451
X010002Y021451
X018002Y021451
X012002Y021451
X009002Y020451
X003002Y020451
X009002Y021451
X005002Y021451
X019002Y021451
X010002Y020451
X019002Y020451
X014002Y020451
X011002Y020451
X002002Y020451
X004002Y020451
X015002Y021451
X017002Y021451
X007002Y020451
X017002Y020451
X012002Y020451
X013002Y021451
X001002Y021451
T101
X011902Y016051
X009902Y003251
X018802Y012851
X003402Y008051
X003402Y016951
X010902Y015051
X008302Y004251
X009802Y015051
X001402Y007951
X014802Y016951
X009902Y006951
X006802Y018151
X008802Y005351
X008902Y008151
X019002Y018951
X001402Y016151
X005002Y019251
X008002Y018051
X016902Y008051
X019102Y016051
T102
X014894Y009844
X013894Y009844
X010894Y012844
X014894Y012844
X012894Y012844
X016894Y012844
X013894Y012844
X012894Y009844
X011894Y009844
X009894Y009844
X010894Y009844
X016894Y009844
X015894Y009844
X011894Y012844
X015894Y012844
X009894Y012844
T00
M30
